<?xml version="1.0" encoding="UTF-8" standalone="no"?>
<svg
   width="1000"
   height="1000"
   viewBox="0 0 264.58333 264.58334"
   version="1.1"
   id="svg112"
   inkscape:version="1.4.3 (0d15f75042, 2025-12-25)"
   sodipodi:docname="azocarone.svg"
   inkscape:export-filename="export.png"
   inkscape:export-xdpi="96"
   inkscape:export-ydpi="96"
   xmlns:inkscape="http://www.inkscape.org/namespaces/inkscape"
   xmlns:sodipodi="http://sodipodi.sourceforge.net/DTD/sodipodi-0.dtd"
   xmlns="http://www.w3.org/2000/svg"
   xmlns:svg="http://www.w3.org/2000/svg"
   xmlns:rdf="http://www.w3.org/1999/02/22-rdf-syntax-ns#"
   xmlns:cc="http://creativecommons.org/ns#"
   xmlns:dc="http://purl.org/dc/elements/1.1/">
  <defs
     id="defs106">
    <linearGradient
       id="linearGradient2840"
       inkscape:swatch="solid">
      <stop
         style="stop-color:#ffffff;stop-opacity:1;"
         offset="0"
         id="stop2838" />
    </linearGradient>
    <linearGradient
       id="linearGradient3060"
       inkscape:swatch="solid">
      <stop
         style="stop-color:#ffffff;stop-opacity:1;"
         offset="0"
         id="stop3058" />
    </linearGradient>
    <filter
       inkscape:collect="always"
       style="color-interpolation-filters:sRGB"
       id="filter1805"
       x="-6.2128934e-05"
       width="1.0001243"
       y="-3.4702901e-05"
       height="1.0000694">
      <feGaussianBlur
         inkscape:collect="always"
         stdDeviation="0.011694264"
         id="feGaussianBlur1807" />
    </filter>
  </defs>
  <sodipodi:namedview
     id="base"
     pagecolor="#ffffff"
     bordercolor="#666666"
     borderopacity="1.0"
     inkscape:pageopacity="0"
     inkscape:pageshadow="2"
     inkscape:zoom="0.68119142"
     inkscape:cx="522.61375"
     inkscape:cy="535.82589"
     inkscape:document-units="px"
     inkscape:current-layer="layer1"
     inkscape:document-rotation="0"
     showgrid="false"
     units="px"
     inkscape:window-width="1920"
     inkscape:window-height="1011"
     inkscape:window-x="0"
     inkscape:window-y="0"
     inkscape:window-maximized="1"
     showborder="true"
     inkscape:showpageshadow="false"
     inkscape:pagecheckerboard="false"
     showguides="true"
     inkscape:snap-to-guides="true"
     fit-margin-left="0"
     fit-margin-right="0"
     fit-margin-top="0"
     fit-margin-bottom="0"
     inkscape:deskcolor="#d1d1d1">
    <sodipodi:guide
       position="18.8988,0"
       orientation="264.5833,0"
       id="guide1403"
       inkscape:locked="false" />
    <sodipodi:guide
       position="37.7976,0"
       orientation="264.5833,0"
       id="guide1405"
       inkscape:locked="false" />
    <sodipodi:guide
       position="56.6964,0"
       orientation="264.5833,0"
       id="guide1407"
       inkscape:locked="false" />
    <sodipodi:guide
       position="75.5952,0"
       orientation="264.5833,0"
       id="guide1409"
       inkscape:locked="false" />
    <sodipodi:guide
       position="94.494,0"
       orientation="264.5833,0"
       id="guide1411"
       inkscape:locked="false" />
    <sodipodi:guide
       position="113.393,0"
       orientation="264.5833,0"
       id="guide1413"
       inkscape:locked="false" />
    <sodipodi:guide
       position="132.292,0"
       orientation="264.5833,0"
       id="guide1415"
       inkscape:locked="false" />
    <sodipodi:guide
       position="151.19,0"
       orientation="264.5833,0"
       id="guide1417"
       inkscape:locked="false" />
    <sodipodi:guide
       position="170.089,0"
       orientation="264.5833,0"
       id="guide1419"
       inkscape:locked="false" />
    <sodipodi:guide
       position="188.988,0"
       orientation="264.5833,0"
       id="guide1421"
       inkscape:locked="false" />
    <sodipodi:guide
       position="207.887,0"
       orientation="264.5833,0"
       id="guide1423"
       inkscape:locked="false" />
    <sodipodi:guide
       position="226.786,0"
       orientation="264.5833,0"
       id="guide1425"
       inkscape:locked="false" />
    <sodipodi:guide
       position="245.685,0"
       orientation="264.5833,0"
       id="guide1427"
       inkscape:locked="false" />
    <sodipodi:guide
       position="0,18.8988"
       orientation="0,264.5833"
       id="guide1429"
       inkscape:locked="false" />
    <sodipodi:guide
       position="0,37.7976"
       orientation="0,264.5833"
       id="guide1431"
       inkscape:locked="false" />
    <sodipodi:guide
       position="0,56.6964"
       orientation="0,264.5833"
       id="guide1433"
       inkscape:locked="false" />
    <sodipodi:guide
       position="0,75.5952"
       orientation="0,264.5833"
       id="guide1435"
       inkscape:locked="false" />
    <sodipodi:guide
       position="0,94.494"
       orientation="0,264.5833"
       id="guide1437"
       inkscape:locked="false" />
    <sodipodi:guide
       position="0,113.393"
       orientation="0,264.5833"
       id="guide1439"
       inkscape:locked="false" />
    <sodipodi:guide
       position="0,132.292"
       orientation="0,264.5833"
       id="guide1441"
       inkscape:locked="false" />
    <sodipodi:guide
       position="0,151.19"
       orientation="0,264.5833"
       id="guide1443"
       inkscape:locked="false" />
    <sodipodi:guide
       position="0,170.089"
       orientation="0,264.5833"
       id="guide1445"
       inkscape:locked="false" />
    <sodipodi:guide
       position="0,188.988"
       orientation="0,264.5833"
       id="guide1447"
       inkscape:locked="false" />
    <sodipodi:guide
       position="0,207.887"
       orientation="0,264.5833"
       id="guide1449"
       inkscape:locked="false" />
    <sodipodi:guide
       position="0,226.786"
       orientation="0,264.5833"
       id="guide1451"
       inkscape:locked="false" />
    <sodipodi:guide
       position="0,245.685"
       orientation="0,264.5833"
       id="guide1453"
       inkscape:locked="false" />
    <sodipodi:guide
       position="264.583,0"
       orientation="0.5253219888177297,0.5253219888177297"
       id="guide1524"
       inkscape:locked="false" />
    <sodipodi:guide
       position="264.583,264.583"
       orientation="-0.8509035245341184,0.8509035245341184"
       id="guide1526"
       inkscape:locked="false" />
  </sodipodi:namedview>
  <metadata
     id="metadata109">
    <rdf:RDF>
      <cc:Work
         rdf:about="">
        <dc:format>image/svg+xml</dc:format>
        <dc:type
           rdf:resource="http://purl.org/dc/dcmitype/StillImage" />
        <dc:title />
      </cc:Work>
    </rdf:RDF>
  </metadata>
  <g
     inkscape:label="Capa 1"
     inkscape:groupmode="layer"
     id="layer1"
     style="display:inline">
    <path
       id="path1740"
       style="font-variation-settings:normal;opacity:1;vector-effect:none;fill:#ecfefe;fill-opacity:1;fill-rule:evenodd;stroke:#009788;stroke-width:10;stroke-linecap:butt;stroke-linejoin:miter;stroke-miterlimit:4;stroke-dasharray:none;stroke-dashoffset:0;stroke-opacity:1;stop-color:#000000;stop-opacity:1"
       transform="scale(0.26458333)"
       d="M 498.86914,5 A 494.99973,494.99973 0 0 0 5,500 494.99973,494.99973 0 0 0 500,995 494.99973,494.99973 0 0 0 995,500 494.99973,494.99973 0 0 0 500,5 494.99973,494.99973 0 0 0 498.86914,5 Z m 112.79492,257.09375 c 0.22196,0.0517 0.4145,0.32875 0.35742,0.7793 -0.0563,0.44478 -0.009,0.12143 -0.10937,0.6289 -0.0385,0.19551 -0.0404,0.28872 -0.11523,0.47657 -0.0331,0.083 -0.077,0.16124 -0.11915,0.24023 -0.0245,0.15098 -0.0457,0.30355 -0.0937,0.44922 -0.0469,0.14188 -0.11083,0.27723 -0.16601,0.41601 -0.0477,0.24586 -0.16776,0.46578 -0.25,0.69922 -0.002,0.078 -0.001,0.15608 -0.0117,0.23438 -0.004,0.17989 -0.007,0.36122 0.004,0.54101 0.0336,0.61546 -0.37713,0.82375 -0.66016,0.61719 -0.16594,0.071 -0.33656,0.0283 -0.44336,-0.10351 -0.11821,-0.0344 -0.14273,-0.14286 -0.23242,-0.38477 -0.0794,-0.21408 -0.0363,-0.27327 0.0664,-0.25586 0.002,0.01 -0.005,-0.0591 -0.002,-0.0312 0.0212,-0.071 0.036,-0.14406 0.0625,-0.21289 0.0166,-0.0421 0.0457,-0.078 0.0684,-0.11719 -10e-4,0.0132 -0.0111,0.0512 -0.004,0.0391 0.0586,-0.12212 0.0788,-0.26286 0.0977,-0.39454 0.0147,-0.046 0.026,-0.0923 0.0449,-0.13672 0.004,-0.009 0.0194,-0.009 0.0215,-0.0176 0.0154,-0.0688 0.0218,-0.14375 0.0273,-0.21875 -0.0192,-0.19588 -0.0352,-0.39173 -0.0625,-0.58789 0.0113,-0.60342 0.0732,-1.21675 -0.0273,-1.81446 h 0.002 c -0.0753,-0.44785 0.10693,-0.71993 0.32813,-0.76953 0.22119,-0.0496 0.48244,0.12438 0.56835,0.57031 10e-4,0.006 7.5e-4,0.0118 0.002,0.0176 0.0349,-0.0413 0.0708,-0.074 0.10937,-0.0976 0.0639,-0.44658 0.31587,-0.61799 0.53711,-0.56641 z m -1.64844,4.29883 c -0.0255,0.005 -0.0188,4.4e-4 -0.0469,0.006 -0.0217,0.004 -0.0333,0.0244 -0.043,0.0488 0.0193,0.005 0.0522,0.0285 0.0742,0.0371 0.008,-0.0289 0.001,-0.0497 0.0117,-0.0801 9.7e-4,-0.003 0.003,-0.008 0.004,-0.0117 z m -4.8457,1.23633 c 0.23284,2.4e-4 0.44852,0.22716 0.41016,0.67968 -0.0155,0.18262 0.01,0.3597 0.0449,0.53516 0.0414,0.0104 0.0838,0.0181 0.125,0.0293 0.24718,0.0876 0.15161,0.0606 0.28125,0.0957 0.0472,0.019 0.0911,0.0449 0.14063,0.0566 0.0234,0.006 0.0496,-0.01 0.0723,-0.006 0.24371,0.0388 0.32172,0.0778 0.55469,0.16211 0.1114,-0.003 0.22174,-0.0144 0.33203,-0.0117 0.90864,0.0224 0.88416,0.94178 -0.0234,0.91797 -0.12017,-0.003 -0.23979,0.005 -0.35937,0.0137 0.0123,0.003 0.0116,0.007 0.0254,0.01 0.12208,0.0287 0.69853,-0.0633 0.0195,0.0273 -0.0361,-0.009 -0.0688,-0.024 -0.10352,-0.0351 -0.0324,0.004 -0.0654,-0.003 -0.0976,0.004 -0.15942,-0.002 -0.32311,-0.007 -0.46485,-0.0937 -0.008,-0.005 0.0349,-0.005 0.0274,-0.008 -0.051,-0.0159 -0.10605,-0.0219 -0.15821,-0.0332 -0.0257,-0.009 -0.0497,-0.0183 -0.0762,-0.0274 0.0351,-3.8e-4 0.13949,-0.004 0.10547,-0.002 -0.0589,0.004 -0.10912,-0.005 -0.16406,-0.006 0.007,0.0548 0.015,0.1095 0.0234,0.16406 -0.0416,0.21359 0.0609,0.41349 0.0723,0.6211 0.004,0.1195 -0.004,0.22086 -0.008,0.33984 -0.0113,0.1265 6e-4,0.25233 -0.002,0.37891 -1.9e-4,0.01 -6.8e-4,-0.0195 -0.002,-0.0293 -0.0548,-0.90663 -0.83236,1.01805 -0.91211,0.11328 -0.0142,-0.16786 -0.002,-0.33778 0.002,-0.50586 0.004,-0.0504 0.005,-0.10005 0.008,-0.15039 0.004,-0.007 0.007,-0.0124 0.008,-0.0195 0.004,-0.0573 -0.024,-0.11323 -0.0312,-0.16992 -0.0409,-0.25402 -0.0335,-0.20523 -0.041,-0.44727 -0.0151,-0.11792 -0.0262,-0.23658 -0.0488,-0.35351 -0.0122,-0.0641 -0.011,-0.0405 -0.0195,-0.082 -0.0651,-0.0127 -0.13062,-0.0237 -0.19532,-0.0391 -0.16218,-0.0384 -0.32179,-0.0889 -0.48242,-0.13281 h -0.002 c -0.0977,-0.0267 -0.18097,-0.0612 -0.25195,-0.10156 -0.22478,-0.0182 -0.44951,-0.0435 -0.67383,-0.0508 h -0.002 c -0.90589,-0.0309 -0.9817,-0.93415 -0.0742,-0.91602 0.4802,0.01 0.96801,0.0442 1.45117,0.10938 -0.01,-0.11941 -0.0195,-0.23828 -0.0137,-0.35743 h -0.002 c 0.0245,-0.45348 0.27302,-0.67992 0.50586,-0.67968 z m -7.88281,4.83203 c 0.221,0.0464 0.36577,0.30662 0.21875,0.73633 -0.079,0.23114 -0.11923,0.37851 -0.23828,0.59179 -0.0454,0.0811 -0.10863,0.15256 -0.15625,0.23242 -0.0269,0.0477 -0.018,0.10799 -0.0293,0.16211 -0.0197,0.0871 -0.0417,0.17502 -0.0645,0.26172 -0.0299,0.10693 -0.0558,0.21471 -0.0898,0.32031 -0.004,0.0131 -0.009,0.0261 -0.0137,0.0391 0.0338,0.008 0.069,0.0138 0.0977,0.0293 0.0264,-0.0353 0.0556,-0.0672 0.0859,-0.10351 0.0382,-0.0453 0.0871,-0.0838 0.12109,-0.13086 0.0903,-0.11952 0.26161,-0.41465 0.32813,-0.52539 0.17509,-0.29216 0.38858,-0.40866 0.56445,-0.39649 0.29312,0.0203 0.48086,0.39531 0.20703,0.89258 -0.21109,0.38336 -0.47294,0.73585 -0.77148,1.05469 -0.11188,0.17415 -0.22722,0.34545 -0.33985,0.51953 -0.0283,0.0439 -0.0672,0.11292 -0.10351,0.17188 -0.0121,0.035 -0.02,0.0721 -0.0391,0.10351 -0.0408,0.0676 -0.0964,0.12403 -0.14062,0.18946 0,0.003 0.0109,2.2e-4 0.01,0.004 -0.0215,0.0403 -0.0496,0.0752 -0.0723,0.11524 -0.004,0.004 0.006,0.01 0.004,0.0137 -0.0227,0.0498 -0.0517,0.096 -0.0781,0.14453 0.0208,0.0453 -0.29137,0.4891 -0.17383,0.28516 0.22646,-0.39307 -0.0831,-0.26723 -0.40039,-0.14649 -0.0183,0.0596 -0.0404,0.12638 -0.0449,0.13672 -0.0661,0.17294 -0.12521,0.27958 -0.22461,0.43359 0.008,-0.009 0.0349,-0.0387 0.0273,-0.0273 -0.0249,0.0453 -0.0575,0.0856 -0.084,0.13086 0,0.003 0.009,0.003 0.008,0.006 -0.0157,0.0354 -0.0341,0.0692 -0.0527,0.10351 -0.005,0.0156 -0.01,0.0317 -0.0176,0.0469 -0.003,0.006 9.1e-4,-0.0151 0.004,-0.0215 0.005,-0.009 0.009,-0.0169 0.0137,-0.0254 0.003,-0.008 0.005,-0.0158 0.008,-0.0234 -0.79442,0.63156 -0.25276,0.40782 -0.17188,0.31836 0.034,-0.0376 0.0747,-0.17177 0.0898,-0.12305 0.0208,0.0737 -0.0436,0.14632 -0.0625,0.2207 -0.0113,0.0442 -0.0122,0.0921 -0.0273,0.13477 -0.031,0.0828 -0.0735,0.16022 -0.11132,0.24023 -0.09,0.13792 -0.11773,0.11311 -0.0762,0.25 0.031,0.10211 0.0401,0.19216 0.0371,0.27344 0.086,-0.0703 0.17051,-0.12283 0.25,-0.14063 0.39202,-0.0877 0.6469,0.40322 0.23438,0.94532 -0.0454,0.0599 -0.0872,0.12318 -0.13672,0.17968 -0.0673,0.0767 -0.14568,0.14549 -0.21484,0.22071 -0.0567,0.0614 -0.0995,0.13249 -0.1543,0.19531 -0.32772,0.37523 0.008,-0.0366 -0.32422,0.38086 -0.20867,0.19978 -0.30226,0.48211 -0.47461,0.70703 -0.0397,0.052 -0.0858,0.0992 -0.12891,0.14844 -0.11866,0.12392 -0.13452,0.29013 -0.19726,0.4375 -0.0265,0.0622 -0.0557,0.12233 -0.0859,0.18359 0.11906,-0.13752 -0.11196,0.28743 -0.13086,0.32031 -0.46328,0.75333 -0.47838,-1.25808 -0.73242,-0.5664 -0.003,0.0239 0.004,0.0111 -0.0234,0.11328 -0.008,0.0231 -0.002,-0.0493 0.004,-0.0723 0.007,-0.0228 0.0127,-0.0223 0.0195,-0.041 0.008,-0.0601 -0.0129,-0.0245 0.0723,-0.2168 -0.004,0.0192 -0.0173,0.0771 -0.01,0.0586 0.0782,-0.23451 0.1472,-0.45932 0.28516,-0.66992 0.0385,-0.0592 0.0842,-0.11349 0.12695,-0.16992 0.0862,-0.0778 0.12117,-0.16629 0.18164,-0.26758 0.1124,-0.18871 0.23724,-0.37276 0.38086,-0.53906 0.52611,-0.65105 -0.02,0.012 0.32617,-0.38281 0.0934,-0.10651 0.1167,-0.15692 0.21875,-0.26758 0.0389,-0.0423 0.0833,-0.078 0.12305,-0.11914 -0.24759,0.0156 -0.52627,-0.17501 -0.5586,-0.61523 -0.0208,-0.28608 0.004,-0.57335 0.19336,-0.80469 0,0.0102 0.005,0.0391 0.008,0.0293 0.0642,-0.21234 0.0857,-0.40616 0.18554,-0.61132 0.002,-0.006 0.002,-0.0118 0.004,-0.0176 0.0488,-0.17281 0.1746,-0.33417 0.25586,-0.49219 -0.008,0.021 -0.0291,0.0833 -0.0215,0.0625 0.0104,-0.0245 0.0217,-0.0484 0.0332,-0.0723 -0.0109,-0.004 -0.0142,-0.008 -0.0254,-0.0117 -0.003,0.0175 -0.007,0.0177 -0.01,0.0391 9.2e-4,-0.0136 0.003,-0.0273 0.004,-0.041 -0.004,-0.002 -0.005,-0.002 -0.01,-0.004 -0.25587,-0.0949 -0.16859,-0.0819 0.0137,-0.0391 0.002,-0.028 0.002,-0.0564 0.008,-0.084 0.0102,-0.0561 0.12173,-0.52043 0.1875,-0.51953 0.014,-0.0386 0.0222,-0.0801 0.0449,-0.11524 0.009,-0.0117 -0.002,0.0543 0.002,0.041 0.0197,-0.0631 0.0221,-0.13062 0.041,-0.19336 0.11146,-0.36212 0.0169,0.13226 0.11328,-0.27344 0.01,-0.0205 0.0112,-0.0166 0.0176,-0.0293 -0.0221,-0.19298 -0.01,-0.3462 0.12695,-0.52344 0.082,-0.0668 0.10648,-0.18017 0.13672,-0.27734 0.0771,-0.254 0.171,-0.49867 0.23828,-0.75586 0.0204,-0.0843 0.10453,-0.44692 0.13477,-0.52735 0.16252,-0.43982 0.0352,-0.06 0.17773,-0.30273 0.0779,-0.13249 0.11625,-0.25036 0.16992,-0.39258 0.1605,-0.42484 0.45869,-0.59136 0.67969,-0.54492 z m 16.26367,3.28515 c 0.75224,-0.0782 -0.38451,0.6774 -0.27148,0.8711 0.009,0.008 0.0184,0.0254 0.0273,0.0351 0.0395,0.0157 0.0985,0.0202 0.20117,0.01 l 0.10742,-0.0137 c 0.005,-0.002 0.009,-0.004 0.0137,-0.006 0.0113,-0.005 0.0238,-0.0183 0.0351,-0.0156 0.008,0.002 -0.0157,0.0115 -0.0195,0.0176 l -0.0293,0.004 c -0.0773,0.0328 -0.15447,0.0651 -0.23242,0.0957 0.0272,0.0368 0.0471,0.0446 0.0781,0.0937 0.0264,0.0445 0.002,0.10552 0.004,0.1582 0.002,0.0682 -0.009,0.0987 -0.0176,0.13672 0.0612,0.005 0.1223,0.0112 0.18359,0.0156 0.16842,0.0126 0.33714,0.022 0.50586,0.0254 0.0129,-0.0353 0.014,-0.0275 0.0273,-0.0664 0.0113,-0.0322 0.0676,0.006 0.10156,0.008 0.0779,0.005 0.15495,0.006 0.23243,0.004 0.90633,-0.023 0.92404,0.90474 0.0156,0.91797 -0.0881,0.001 -0.12688,-3.6e-4 -0.18555,0 -0.004,0.0149 -0.005,0.0197 -0.01,0.0352 -0.0204,0.0701 -0.14385,0.0186 -0.2168,0.0176 -0.92862,-0.0125 -1.8508,-0.17713 -2.77734,-0.2207 h -0.002 c -0.77051,-0.0374 -0.83156,-0.7153 -0.27539,-0.87891 -0.11691,-0.0174 -0.23171,-0.0485 -0.35157,-0.0527 h -0.002 c -0.90593,-0.0333 -1.04359,-0.86999 -0.13672,-0.90625 0.26138,-0.0105 0.51757,0.0163 0.77148,0.0645 0.06,-0.0245 0.1165,-0.05 0.18946,-0.0664 0.35005,-0.0787 0.72926,-0.1702 1.08984,-0.125 0.031,-0.0145 0.0621,-0.0371 0.0898,-0.0449 0.14335,-0.0408 0.29834,-0.0172 0.44335,-0.006 0.0286,-0.0108 0.0616,-0.0209 0.0801,-0.0293 0.0571,-0.0256 0.11682,-0.0417 0.17578,-0.0625 0.0518,-0.005 0.1029,-0.0103 0.1543,-0.0156 z m -0.80859,0.97266 c -0.0602,0.0167 -0.10739,0.0295 -0.17578,0.0488 -0.002,0.0127 -0.003,0.0273 -0.004,0.043 0.007,-7.3e-4 0.0143,-0.003 0.0215,-0.002 0.007,8.6e-4 -0.0124,0.005 -0.0215,0.004 -0.002,0.0317 -0.0106,0.0414 -0.01,0.0859 0.005,0.0753 0.0164,0.11854 0.0332,0.1582 0.0488,0.005 0.0977,0.009 0.14648,0.0137 0.009,-0.0702 0.022,-0.14022 0.0273,-0.21093 -10e-4,-0.0406 0.002,-0.0811 0.004,-0.1211 -0.007,-0.005 -0.0139,-0.0121 -0.0215,-0.0195 z m -17.48438,0.15234 c -0.0209,0.006 -0.0294,0.0343 -0.0391,0.0899 0.0173,0.004 0.0197,0.006 0.0352,0.01 0.0132,-0.0278 0.028,-0.0551 0.0391,-0.084 -0.005,-1.4e-4 -0.0315,-0.0168 -0.0352,-0.0156 z m 17.50586,0.11133 c -0.007,0.0298 -0.0181,0.0586 -0.0273,0.0879 0.01,9.2e-4 0.0196,5.2e-4 0.0293,0.002 -8.8e-4,-0.03 6e-4,-0.0596 -0.002,-0.0899 z m 0.29688,0.0215 c -0.005,0.0319 -0.016,0.062 -0.0215,0.0937 0.0507,0.005 0.10161,0.007 0.15235,0.0117 -0.0451,-0.0396 -0.0821,-0.0553 -0.13086,-0.10547 z m 74.74609,11.4375 c 1.4619,-0.0947 2.54065,1.27958 2.13672,3.20312 1.46301,1.54809 1.14014,2.46091 -0.44531,4.10352 -1.73023,1.72302 -3.59759,3.28278 -5.36524,4.96289 -0.54474,0.51779 -1.04032,1.08503 -1.59179,1.5957 -0.58266,0.53957 -1.20625,1.03521 -1.8086,1.55274 -1.18915,0.76456 -1.33496,0.94188 -2.52344,1.44726 -0.0541,0.023 -0.13107,0.0614 -0.20507,0.10156 -0.0157,0.0395 -0.018,0.025 -0.0371,0.084 -0.0208,0.0635 -0.0164,0.13396 -0.0391,0.19726 -0.10233,0.30884 -0.22161,0.54724 -0.375,0.81055 1.8e-4,0.02 0.002,0.0403 0.002,0.0645 0.006,-0.0125 0.0165,-0.0366 0.0156,-0.0254 -0.002,0.0224 -0.0128,0.0423 -0.0156,0.0645 10e-4,0.18577 0.002,0.40136 0.002,0.46289 0.007,1.81211 -1.81552,1.82315 -1.83203,0.0195 -0.0557,-0.0163 -0.13299,-0.0345 -0.16797,-0.0527 -0.0281,0.0569 -0.0696,0.15013 -0.082,0.16797 0.30833,0.26907 0.40549,0.86446 0.0293,1.6211 -0.0597,0.1195 -0.13509,0.23363 -0.17969,0.35937 -0.0272,0.0799 -0.022,0.16839 -0.0371,0.25195 -0.0416,0.24595 -0.0612,0.49472 -0.10547,0.74024 -0.0782,0.43761 -0.1336,0.51912 -0.29687,0.94531 -0.19595,0.6113 -0.39428,1.22083 -0.67188,1.79883 0.34038,0.17199 0.49904,0.28022 -0.0352,0.13867 -1.86373,-0.49486 -1.84284,0.11238 -1.625,-0.91211 -0.29756,-0.14144 -0.40603,-0.20986 0.0352,-0.0723 0.0117,-0.0245 0.023,-0.0497 0.0371,-0.0723 0.004,-0.008 0.0219,-0.003 0.0254,-0.0117 0.19548,-0.50729 0.34101,-1.03409 0.52734,-1.54492 0.0563,-0.13521 0.13053,-0.26626 0.16407,-0.4082 -0.27583,-0.23805 -0.41564,-0.71667 -0.21094,-1.39649 0.0537,-0.17759 0.11137,-0.35448 0.19726,-0.51953 0.1867,-0.57683 0.15369,-0.45121 0.13477,-0.375 0.005,-0.028 0.0122,-0.0618 0.0703,-0.27344 0.0155,-0.0564 0.0303,-0.11334 0.0606,-0.16406 0.004,-0.009 0.0255,0.0142 0.0273,0.01 0.0272,-0.13943 0.0337,-0.28293 0.0488,-0.42383 0.0472,-0.14972 0.0878,-0.30208 0.14258,-0.44922 0.004,-0.0102 0.0199,-0.008 0.0312,-0.0117 0.0333,-0.11146 0.0636,-0.22253 0.0977,-0.33398 0.008,-0.0121 0.0322,-0.007 0.0351,-0.0195 0.037,-0.14619 0.0575,-0.29692 0.084,-0.44531 0.0495,-0.1791 0.0989,-0.358 0.14843,-0.53711 0.0355,-0.1284 0.0828,-0.23419 0.13086,-0.33789 -0.94665,-0.42788 -1.31513,-0.70115 -0.91601,-1.47461 h -0.35938 c -1.81659,0 -1.81659,-1.83593 0,-1.83593 h 1.16797 0.3125 c 0.34257,-0.43781 0.73239,-0.81709 1.14063,-1.17969 -0.48799,-0.0155 -0.97521,-0.0277 -1.46289,-0.0742 -1.1644,-0.18914 -2.25291,-0.36944 -3.36328,-0.77148 -0.19437,-0.0704 -0.48861,-0.10034 -0.54493,-0.29688 -0.0629,-0.0133 -0.12641,-0.0244 -0.18945,-0.0371 -0.2315,-0.058 -0.4647,-0.10583 -0.69336,-0.17383 -0.12661,-0.0376 -0.23994,-0.1267 -0.37109,-0.14258 -0.62102,-0.0746 -1.66247,0.4627 -1.8711,-0.12695 -1.9062,-5.387 -0.23011,-4.99859 2.85157,-5.60547 1.48255,-0.1265 2.95929,-0.30665 4.44336,-0.41406 0.93814,-0.0679 1.88276,-0.0565 2.82031,-0.13477 1.52991,-0.12772 3.05894,-0.38677 4.58398,-0.57031 0.37988,-0.30841 0.69859,-0.71182 1.13867,-0.92578 0.65134,-0.31666 1.24963,-0.4331 1.86524,-0.42578 0.0356,-0.0515 0.0741,-0.10059 0.10937,-0.15234 0.905,-1.3263 1.92179,-1.91741 2.80469,-1.97461 z m -15.21875,23.63086 c -0.0102,0.0214 -0.0225,0.0415 -0.0332,0.0625 -0.001,0.005 1.2e-4,0.005 -0.002,0.01 0.42939,0.2041 1.19897,0.54186 1.6543,0.77149 0.23505,-0.80998 0.15291,-0.27664 -1.58594,-0.83399 -0.0202,-0.006 -0.0148,-0.004 -0.0332,-0.01 z m -80.85156,-20.76954 c 0.21876,-0.0419 0.50538,0.1316 0.65429,0.56055 0.11906,0.34575 0.0102,0.76645 0.10352,1.10547 0.005,0.0179 0.0806,0.1509 0.0957,0.17773 -0.0359,-0.0457 -0.0696,-0.091 -0.10742,-0.13671 -0.19418,-0.24609 -0.2342,-0.12156 -0.24609,0.0762 0.0325,0.004 0.0651,0.006 0.0977,0.01 0.21268,0.0486 0.40094,0.16423 0.60352,0.24024 0.15194,0.057 0.1559,0.026 0.30859,0.11328 0.0563,0.0321 0.10567,0.0753 0.15821,0.11328 0.73553,0.53292 -1.41527,0.17886 -0.64258,0.65625 0.0367,0.0228 0.0754,0.0412 0.10937,0.0684 0.0193,0.0155 -0.0437,-0.0249 -0.0664,-0.0332 -0.0756,-0.0275 -0.15488,-0.0459 -0.23047,-0.0742 -0.74842,-0.28245 0.0733,0.0171 -0.3418,-0.1543 -0.0359,-0.0147 -0.0735,-0.025 -0.11133,-0.0371 0.0174,-0.011 0.0755,-0.0245 0.0566,-0.0332 -0.0276,-0.0117 -0.0596,0.0139 -0.0898,0.0195 -0.0654,0.0125 -0.12879,0.0291 -0.19531,0.0332 -0.18667,0.0115 -0.37163,-0.0185 -0.55078,-0.0684 -0.0926,-0.0258 -0.18078,-0.0667 -0.27149,-0.0996 -0.74733,-0.27056 -0.56578,-0.92388 0.0703,-0.89648 0.0909,0.004 0.19075,0.0219 0.29883,0.0566 0.0427,0.0138 0.0927,0.0316 0.14063,0.0488 -0.0654,-0.33308 0.003,-0.67748 -0.0898,-1.00781 -0.12364,-0.437 0.0273,-0.69633 0.2461,-0.73829 z m 5.24219,7.33594 c 0.0904,-0.002 0.19255,0.008 0.30273,0.0352 0.36019,0.0895 0.7623,0.23165 0.86133,0.63867 0.006,0.0287 0.01,0.0583 0.0137,0.0879 0.0705,0.003 0.073,0.005 0.01,0.008 v 0.002 c 0.0836,0.19462 0.0519,0.2113 0.0918,0.41211 0.0261,0.1324 0.0727,0.25749 0.0937,0.39257 0.0378,0.0589 0.0482,0.12955 0.0645,0.19727 1.143,-0.0855 3.16399,-0.13582 3.89257,-0.17383 0.12849,-0.007 0.25638,-0.0227 0.38477,-0.0312 0.0346,-0.015 0.0599,-0.0349 0.0996,-0.0469 0.43249,-0.13059 0.8767,-0.15524 1.32812,-0.14844 9.9e-4,0.003 0.003,0.005 0.004,0.008 0.0493,-0.0208 0.096,-0.034 0.13086,-0.0332 0.0316,7.5e-4 0.054,0.014 0.0625,0.0508 0.0231,0.10103 0.004,0.2013 -0.0254,0.30078 0.11275,0.19652 0.21624,0.39281 0.17969,0.60352 -0.0305,0.17578 -0.34971,0.0721 -0.52735,0.0898 -0.47335,0.0475 -0.75181,0.0557 -1.08984,0.0781 -0.0472,0.01 -0.0886,0.01 -0.13086,0.01 -0.79476,0.0489 -1.49535,0.0701 -2.75391,0.11914 -0.54424,0.0212 -1.08931,0.0364 -1.63281,0.0723 0.15475,0.78454 -0.52867,1.25969 -0.74609,0.42968 -0.0286,-0.1095 -0.10501,-0.19439 -0.17774,-0.28125 -0.63625,0.003 -0.89832,-0.51196 -0.24414,-0.77539 -0.0214,-0.22633 -0.0215,-0.45633 -0.0176,-0.68554 0.002,-0.13204 0.007,-0.26428 0.01,-0.39649 -0.0614,-0.021 -0.12808,-0.0454 -0.17383,-0.0586 -0.76367,-0.22063 -0.63883,-0.88754 -0.01,-0.9043 z m 1.1875,0.77149 c -0.003,1.7e-4 -0.006,-1.7e-4 -0.01,0 0.003,0.0256 0.008,0.0509 0.0117,0.0762 -8e-5,-0.0254 -0.0118,-0.0947 -0.002,-0.0762 z m 76.58203,1.89648 c -0.0327,0.0264 -0.0825,0.095 -0.125,0.14063 h 0.0625 c 0.0292,0.004 0.0409,0.009 0.0664,0.0137 0.0329,-0.0406 0.0499,-0.0656 0.084,-0.10742 -0.0296,-0.015 -0.0583,-0.0319 -0.0879,-0.0469 z m 29.75781,92.02148 c 0.5818,-0.0596 1.30131,0.97203 3.1543,3.66407 0.0623,-0.17187 0.12918,-0.33505 0.21093,-0.45703 -0.23501,0.73255 -0.17342,0.54747 -0.16406,0.52148 0.0143,0.0207 0.0227,0.0338 0.0371,0.0547 0.061,0.0886 -0.14371,0.42015 -0.39258,0.77929 -0.14323,0.47551 -0.25249,1.20689 -0.32422,1.4629 -0.18714,0.66974 -0.47666,1.345 -0.75976,2 0.41653,1.02015 0.1079,2.45948 -1.31836,3.6875 -0.0222,0.46878 0.012,0.94201 0.0137,1.4121 0.004,1.20892 0.0232,2.41626 0.0156,3.625 -0.0752,1.30855 -0.16285,2.62258 0.084,3.92383 0.0835,0.81151 0.29932,2.22591 0.0762,3.02539 -0.63239,2.26027 -1.96289,3.33776 -4.2207,3.60157 -0.74941,-0.25883 -1.65096,-0.25382 -2.24805,-0.77539 -1.13023,-0.98744 -0.90883,-2.43444 -0.92773,-3.69922 0.005,-0.8839 0.0285,-1.76803 0.0391,-2.65235 -0.36377,-0.33051 -0.81993,-0.9113 -1.44727,-1.68554 -0.36155,0.37354 -0.67479,0.63579 -0.90625,0.70312 -0.37146,1.11671 -0.72311,2.24228 -1.20898,3.31641 -0.13516,0.29884 -0.31517,0.57616 -0.44141,0.8789 -0.0367,0.0915 -0.0186,0.20006 -0.0488,0.29493 -0.0631,0.20519 -0.1506,0.40087 -0.22657,0.60156 -0.63987,1.56128 -0.44094,1.11089 -0.31054,-0.32813 0.32764,-3.61833 -3.7007,4.6966 -3.51172,1.06836 0.0174,-0.33127 -0.0416,-1.69357 0.32422,-1.83984 0.0212,-0.008 -0.33781,1.19921 0.082,-0.24219 0.24506,-0.57192 0.0851,-0.17404 0.42187,-1.2207 0.0866,-0.21623 0.22302,-0.40749 0.32031,-0.61914 0.47177,-1.02539 0.78958,-2.11041 1.1543,-3.17578 0.50922,-1.70378 0.88462,-3.4394 1.4082,-5.13868 0.53509,-1.73597 1.63088,-2.51287 2.5,-2.41211 0.86935,0.10099 1.5123,1.08083 1.14258,2.85938 -0.049,0.23577 -0.11904,0.46452 -0.17773,0.69727 0.18139,-0.27426 0.36329,-0.54817 0.54492,-0.82227 0.17549,-0.2904 0.21177,-0.3521 0.35742,-0.5918 7.4e-4,-0.52941 0.0732,-1.06111 0.21094,-1.56445 0.20641,-0.75407 1.02774,-1.42926 1.89063,-2.01758 0.2815,-0.506 0.49519,-0.86981 0.9414,-1.70898 0.17431,-0.32757 0.34819,-0.65537 0.48047,-1.00196 0.0786,-0.20606 -0.0591,-0.57165 0.14844,-0.64648 0.0743,-0.0266 0.1147,0.10165 0.14062,0.23828 0.006,-0.0136 0.01,-0.0274 0.0156,-0.041 -0.0301,-0.39098 -0.0972,-0.77959 -0.14063,-1.16993 0.15073,-0.45312 0.25697,-0.92405 0.45313,-1.35937 0.11614,-0.25769 0.30648,-0.47554 0.47656,-0.70117 0.15384,-0.2042 0.27552,-0.32503 0.39062,-0.42578 0.0704,-0.15124 0.12368,-0.28523 0.1543,-0.34766 0.75129,-1.02951 1.14099,-1.72589 1.58594,-1.77149 z m -8.17188,18.48829 c 0.19773,-0.20428 0.41536,-0.45106 0.63282,-0.69922 -0.25957,-0.42191 -0.54085,-0.82545 -0.84961,-1.20508 -0.11654,0.42058 -0.2249,0.84471 -0.32813,1.26953 0.17971,0.21054 0.3901,0.44369 0.54492,0.63477 z" />
    <path
       id="path1740-9"
       style="font-variation-settings:normal;display:inline;mix-blend-mode:normal;vector-effect:none;fill:#009788;fill-opacity:1;fill-rule:evenodd;stroke:none;stroke-width:9.32897;stroke-linecap:butt;stroke-linejoin:miter;stroke-miterlimit:4;stroke-dasharray:none;stroke-dashoffset:0;stroke-opacity:1;stop-color:#000000"
       transform="scale(0.26458333)"
       d="M 499.21875,34.144531 A 464.99983,464.99983 0 0 0 34.703125,499.14453 a 464.99983,464.99983 0 0 0 464.999995,465 464.99983,464.99983 0 0 0 465,-465 464.99983,464.99983 0 0 0 -465,-464.999999 464.99983,464.99983 0 0 0 -0.48437,0 z M 611.66406,262.09375 c 0.22196,0.0517 0.4145,0.32875 0.35742,0.7793 -0.0563,0.44478 -0.009,0.12143 -0.10937,0.6289 -0.0385,0.19551 -0.0404,0.28872 -0.11523,0.47657 -0.0331,0.083 -0.077,0.16124 -0.11915,0.24023 -0.0245,0.15098 -0.0457,0.30355 -0.0937,0.44922 -0.0469,0.14188 -0.11083,0.27723 -0.16601,0.41601 -0.0477,0.24586 -0.16776,0.46578 -0.25,0.69922 -0.002,0.078 -0.001,0.15608 -0.0117,0.23438 -0.004,0.17989 -0.007,0.36122 0.004,0.54101 0.0336,0.61546 -0.37713,0.82375 -0.66016,0.61719 -0.16594,0.071 -0.33656,0.0283 -0.44336,-0.10351 -0.11821,-0.0344 -0.14273,-0.14286 -0.23242,-0.38477 -0.0794,-0.21408 -0.0363,-0.27327 0.0664,-0.25586 0.002,0.01 -0.005,-0.0591 -0.002,-0.0312 0.0212,-0.071 0.036,-0.14406 0.0625,-0.21289 0.0166,-0.0421 0.0457,-0.078 0.0684,-0.11719 -10e-4,0.0132 -0.0111,0.0512 -0.004,0.0391 0.0586,-0.12212 0.0788,-0.26286 0.0977,-0.39454 0.0147,-0.046 0.026,-0.0923 0.0449,-0.13672 0.004,-0.009 0.0194,-0.009 0.0215,-0.0176 0.0154,-0.0688 0.0218,-0.14375 0.0273,-0.21875 -0.0192,-0.19588 -0.0352,-0.39173 -0.0625,-0.58789 0.0113,-0.60342 0.0732,-1.21675 -0.0273,-1.81446 h 0.002 c -0.0753,-0.44785 0.10693,-0.71993 0.32813,-0.76953 0.22119,-0.0496 0.48244,0.12438 0.56835,0.57031 10e-4,0.006 7.5e-4,0.0118 0.002,0.0176 0.0349,-0.0413 0.0708,-0.074 0.10937,-0.0976 0.0639,-0.44658 0.31587,-0.61799 0.53711,-0.56641 z m -1.64844,4.29883 c -0.0255,0.005 -0.0188,4.4e-4 -0.0469,0.006 -0.0217,0.004 -0.0333,0.0244 -0.043,0.0488 0.0193,0.005 0.0522,0.0285 0.0742,0.0371 0.008,-0.0289 0.001,-0.0497 0.0117,-0.0801 9.7e-4,-0.003 0.003,-0.008 0.004,-0.0117 z m -4.8457,1.23633 c 0.23284,2.4e-4 0.44852,0.22716 0.41016,0.67968 -0.0155,0.18262 0.01,0.3597 0.0449,0.53516 0.0414,0.0104 0.0838,0.0181 0.125,0.0293 0.24718,0.0876 0.15161,0.0606 0.28125,0.0957 0.0472,0.019 0.0911,0.0449 0.14063,0.0566 0.0234,0.006 0.0496,-0.01 0.0723,-0.006 0.24371,0.0388 0.32172,0.0778 0.55469,0.16211 0.1114,-0.003 0.22174,-0.0144 0.33203,-0.0117 0.90864,0.0224 0.88416,0.94178 -0.0234,0.91797 -0.12017,-0.003 -0.23979,0.005 -0.35937,0.0137 0.0123,0.003 0.0116,0.007 0.0254,0.01 0.12208,0.0287 0.69853,-0.0633 0.0195,0.0273 -0.0361,-0.009 -0.0688,-0.024 -0.10352,-0.0351 -0.0324,0.004 -0.0654,-0.003 -0.0976,0.004 -0.15942,-0.002 -0.32311,-0.007 -0.46485,-0.0937 -0.008,-0.005 0.0349,-0.005 0.0274,-0.008 -0.051,-0.0159 -0.10605,-0.0219 -0.15821,-0.0332 -0.0257,-0.009 -0.0497,-0.0183 -0.0762,-0.0274 0.0351,-3.8e-4 0.13949,-0.004 0.10547,-0.002 -0.0589,0.004 -0.10912,-0.005 -0.16406,-0.006 0.007,0.0548 0.015,0.1095 0.0234,0.16406 -0.0416,0.21359 0.0609,0.41349 0.0723,0.6211 0.004,0.1195 -0.004,0.22086 -0.008,0.33984 -0.0113,0.1265 6e-4,0.25233 -0.002,0.37891 -1.9e-4,0.01 -6.8e-4,-0.0195 -0.002,-0.0293 -0.0548,-0.90663 -0.83236,1.01805 -0.91211,0.11328 -0.0142,-0.16786 -0.002,-0.33778 0.002,-0.50586 0.004,-0.0504 0.005,-0.10005 0.008,-0.15039 0.004,-0.007 0.007,-0.0124 0.008,-0.0195 0.004,-0.0573 -0.024,-0.11323 -0.0312,-0.16992 -0.0409,-0.25402 -0.0335,-0.20523 -0.041,-0.44727 -0.0151,-0.11792 -0.0262,-0.23658 -0.0488,-0.35351 -0.0122,-0.0641 -0.011,-0.0405 -0.0195,-0.082 -0.0651,-0.0127 -0.13062,-0.0237 -0.19532,-0.0391 -0.16218,-0.0384 -0.32179,-0.0889 -0.48242,-0.13281 h -0.002 c -0.0977,-0.0267 -0.18097,-0.0612 -0.25195,-0.10156 -0.22478,-0.0182 -0.44951,-0.0435 -0.67383,-0.0508 h -0.002 c -0.90589,-0.0309 -0.9817,-0.93415 -0.0742,-0.91602 0.4802,0.01 0.96801,0.0442 1.45117,0.10938 -0.01,-0.11941 -0.0195,-0.23828 -0.0137,-0.35743 h -0.002 c 0.0245,-0.45348 0.27302,-0.67992 0.50586,-0.67968 z m -7.88281,4.83203 c 0.221,0.0464 0.36577,0.30662 0.21875,0.73633 -0.079,0.23114 -0.11923,0.37851 -0.23828,0.59179 -0.0454,0.0811 -0.10863,0.15256 -0.15625,0.23242 -0.0269,0.0477 -0.018,0.10799 -0.0293,0.16211 -0.0197,0.0871 -0.0417,0.17502 -0.0645,0.26172 -0.0299,0.10693 -0.0558,0.21471 -0.0898,0.32031 -0.004,0.0131 -0.009,0.0261 -0.0137,0.0391 0.0338,0.008 0.069,0.0138 0.0977,0.0293 0.0264,-0.0353 0.0556,-0.0672 0.0859,-0.10351 0.0382,-0.0453 0.0871,-0.0838 0.12109,-0.13086 0.0903,-0.11952 0.26161,-0.41465 0.32813,-0.52539 0.17509,-0.29216 0.38858,-0.40866 0.56445,-0.39649 0.29312,0.0203 0.48086,0.39531 0.20703,0.89258 -0.21109,0.38336 -0.47294,0.73585 -0.77148,1.05469 -0.11188,0.17415 -0.22722,0.34545 -0.33985,0.51953 -0.0283,0.0439 -0.0672,0.11292 -0.10351,0.17188 -0.0121,0.035 -0.02,0.0721 -0.0391,0.10351 -0.0408,0.0676 -0.0964,0.12403 -0.14062,0.18946 0,0.003 0.0109,2.2e-4 0.01,0.004 -0.0215,0.0403 -0.0496,0.0752 -0.0723,0.11524 -0.004,0.004 0.006,0.01 0.004,0.0137 -0.0227,0.0498 -0.0517,0.096 -0.0781,0.14453 0.0208,0.0453 -0.29137,0.4891 -0.17383,0.28516 0.22646,-0.39307 -0.0831,-0.26723 -0.40039,-0.14649 -0.0183,0.0596 -0.0404,0.12638 -0.0449,0.13672 -0.0661,0.17294 -0.12521,0.27958 -0.22461,0.43359 0.008,-0.009 0.0349,-0.0387 0.0273,-0.0273 -0.0249,0.0453 -0.0575,0.0856 -0.084,0.13086 0,0.003 0.009,0.003 0.008,0.006 -0.0157,0.0354 -0.0341,0.0692 -0.0527,0.10351 -0.005,0.0156 -0.01,0.0317 -0.0176,0.0469 -0.003,0.006 9.1e-4,-0.0151 0.004,-0.0215 0.005,-0.009 0.009,-0.0169 0.0137,-0.0254 0.003,-0.008 0.005,-0.0158 0.008,-0.0234 -0.79442,0.63156 -0.25276,0.40782 -0.17188,0.31836 0.034,-0.0376 0.0747,-0.17177 0.0898,-0.12305 0.0208,0.0737 -0.0436,0.14632 -0.0625,0.2207 -0.0113,0.0442 -0.0122,0.0921 -0.0273,0.13477 -0.031,0.0828 -0.0735,0.16022 -0.11132,0.24023 -0.09,0.13792 -0.11773,0.11311 -0.0762,0.25 0.031,0.10211 0.0401,0.19216 0.0371,0.27344 0.086,-0.0703 0.17051,-0.12283 0.25,-0.14063 0.39202,-0.0877 0.6469,0.40322 0.23438,0.94532 -0.0454,0.0599 -0.0872,0.12318 -0.13672,0.17968 -0.0673,0.0767 -0.14568,0.14549 -0.21484,0.22071 -0.0567,0.0614 -0.0995,0.13249 -0.1543,0.19531 -0.32772,0.37523 0.008,-0.0366 -0.32422,0.38086 -0.20867,0.19978 -0.30226,0.48211 -0.47461,0.70703 -0.0397,0.052 -0.0858,0.0992 -0.12891,0.14844 -0.11866,0.12392 -0.13452,0.29013 -0.19726,0.4375 -0.0265,0.0622 -0.0557,0.12233 -0.0859,0.18359 0.11906,-0.13752 -0.11196,0.28743 -0.13086,0.32031 -0.46328,0.75333 -0.47838,-1.25808 -0.73242,-0.5664 -0.003,0.0239 0.004,0.0111 -0.0234,0.11328 -0.008,0.0231 -0.002,-0.0493 0.004,-0.0723 0.007,-0.0228 0.0127,-0.0223 0.0195,-0.041 0.008,-0.0601 -0.0129,-0.0245 0.0723,-0.2168 -0.004,0.0192 -0.0173,0.0771 -0.01,0.0586 0.0782,-0.23451 0.1472,-0.45932 0.28516,-0.66992 0.0385,-0.0592 0.0842,-0.11349 0.12695,-0.16992 0.0862,-0.0778 0.12117,-0.16629 0.18164,-0.26758 0.1124,-0.18871 0.23724,-0.37276 0.38086,-0.53906 0.52611,-0.65105 -0.02,0.012 0.32617,-0.38281 0.0934,-0.10651 0.1167,-0.15692 0.21875,-0.26758 0.0389,-0.0423 0.0833,-0.078 0.12305,-0.11914 -0.24759,0.0156 -0.52627,-0.17501 -0.5586,-0.61523 -0.0208,-0.28608 0.004,-0.57335 0.19336,-0.80469 0,0.0102 0.005,0.0391 0.008,0.0293 0.0642,-0.21234 0.0857,-0.40616 0.18554,-0.61132 0.002,-0.006 0.002,-0.0118 0.004,-0.0176 0.0488,-0.17281 0.1746,-0.33417 0.25586,-0.49219 -0.008,0.021 -0.0291,0.0833 -0.0215,0.0625 0.0104,-0.0245 0.0217,-0.0484 0.0332,-0.0723 -0.0109,-0.004 -0.0142,-0.008 -0.0254,-0.0117 -0.003,0.0175 -0.007,0.0177 -0.01,0.0391 9.2e-4,-0.0136 0.003,-0.0273 0.004,-0.041 -0.004,-0.002 -0.005,-0.002 -0.01,-0.004 -0.25587,-0.0949 -0.16859,-0.0819 0.0137,-0.0391 0.002,-0.028 0.002,-0.0564 0.008,-0.084 0.0102,-0.0561 0.12173,-0.52043 0.1875,-0.51953 0.014,-0.0386 0.0222,-0.0801 0.0449,-0.11524 0.009,-0.0117 -0.002,0.0543 0.002,0.041 0.0197,-0.0631 0.0221,-0.13062 0.041,-0.19336 0.11146,-0.36212 0.0169,0.13226 0.11328,-0.27344 0.01,-0.0205 0.0112,-0.0166 0.0176,-0.0293 -0.0221,-0.19298 -0.01,-0.3462 0.12695,-0.52344 0.082,-0.0668 0.10648,-0.18017 0.13672,-0.27734 0.0771,-0.254 0.171,-0.49867 0.23828,-0.75586 0.0204,-0.0843 0.10453,-0.44692 0.13477,-0.52735 0.16252,-0.43982 0.0352,-0.06 0.17773,-0.30273 0.0779,-0.13249 0.11625,-0.25036 0.16992,-0.39258 0.1605,-0.42484 0.45869,-0.59136 0.67969,-0.54492 z m 16.26367,3.28515 c 0.75224,-0.0782 -0.38451,0.6774 -0.27148,0.8711 0.009,0.008 0.0184,0.0254 0.0273,0.0351 0.0395,0.0157 0.0985,0.0202 0.20117,0.01 l 0.10742,-0.0137 c 0.005,-0.002 0.009,-0.004 0.0137,-0.006 0.0113,-0.005 0.0238,-0.0183 0.0351,-0.0156 0.008,0.002 -0.0157,0.0115 -0.0195,0.0176 l -0.0293,0.004 c -0.0773,0.0328 -0.15447,0.0651 -0.23242,0.0957 0.0272,0.0368 0.0471,0.0446 0.0781,0.0937 0.0264,0.0445 0.002,0.10552 0.004,0.1582 0.002,0.0682 -0.009,0.0987 -0.0176,0.13672 0.0612,0.005 0.1223,0.0112 0.18359,0.0156 0.16842,0.0126 0.33714,0.022 0.50586,0.0254 0.0129,-0.0353 0.014,-0.0275 0.0273,-0.0664 0.0113,-0.0322 0.0676,0.006 0.10156,0.008 0.0779,0.005 0.15495,0.006 0.23243,0.004 0.90633,-0.023 0.92404,0.90474 0.0156,0.91797 -0.0881,0.001 -0.12688,-3.6e-4 -0.18555,0 -0.004,0.0149 -0.005,0.0197 -0.01,0.0352 -0.0204,0.0701 -0.14385,0.0186 -0.2168,0.0176 -0.92862,-0.0125 -1.8508,-0.17713 -2.77734,-0.2207 h -0.002 c -0.77051,-0.0374 -0.83156,-0.7153 -0.27539,-0.87891 -0.11691,-0.0174 -0.23171,-0.0485 -0.35157,-0.0527 h -0.002 c -0.90593,-0.0333 -1.04359,-0.86999 -0.13672,-0.90625 0.26138,-0.0105 0.51757,0.0163 0.77148,0.0645 0.06,-0.0245 0.1165,-0.05 0.18946,-0.0664 0.35005,-0.0787 0.72926,-0.1702 1.08984,-0.125 0.031,-0.0145 0.0621,-0.0371 0.0898,-0.0449 0.14335,-0.0408 0.29834,-0.0172 0.44335,-0.006 0.0286,-0.0108 0.0616,-0.0209 0.0801,-0.0293 0.0571,-0.0256 0.11682,-0.0417 0.17578,-0.0625 0.0518,-0.005 0.1029,-0.0103 0.1543,-0.0156 z m -0.80859,0.97266 c -0.0602,0.0167 -0.10739,0.0295 -0.17578,0.0488 -0.002,0.0127 -0.003,0.0273 -0.004,0.043 0.007,-7.3e-4 0.0143,-0.003 0.0215,-0.002 0.007,8.6e-4 -0.0124,0.005 -0.0215,0.004 -0.002,0.0317 -0.0106,0.0414 -0.01,0.0859 0.005,0.0753 0.0164,0.11854 0.0332,0.1582 0.0488,0.005 0.0977,0.009 0.14648,0.0137 0.009,-0.0702 0.022,-0.14022 0.0273,-0.21093 -10e-4,-0.0406 0.002,-0.0811 0.004,-0.1211 -0.007,-0.005 -0.0139,-0.0121 -0.0215,-0.0195 z m -17.48438,0.15234 c -0.0209,0.006 -0.0294,0.0343 -0.0391,0.0899 0.0173,0.004 0.0197,0.006 0.0352,0.01 0.0132,-0.0278 0.028,-0.0551 0.0391,-0.084 -0.005,-1.4e-4 -0.0315,-0.0168 -0.0352,-0.0156 z m 17.50586,0.11133 c -0.007,0.0298 -0.0181,0.0586 -0.0273,0.0879 0.01,9.2e-4 0.0196,5.2e-4 0.0293,0.002 -8.8e-4,-0.03 6e-4,-0.0596 -0.002,-0.0899 z m 0.29688,0.0215 c -0.005,0.0319 -0.016,0.062 -0.0215,0.0937 0.0507,0.005 0.10161,0.007 0.15235,0.0117 -0.0451,-0.0396 -0.0821,-0.0553 -0.13086,-0.10547 z m 74.74609,11.4375 c 1.4619,-0.0947 2.54065,1.27958 2.13672,3.20312 1.46301,1.54809 1.14014,2.46091 -0.44531,4.10352 -1.68146,1.67444 -3.48979,3.19784 -5.21289,4.82422 -0.11158,0.18565 -0.24713,0.32119 -0.4043,0.39257 -0.44739,0.44658 -0.87589,0.91217 -1.33984,1.3418 -0.14489,0.13417 -0.30023,0.25697 -0.44922,0.38672 -0.007,0.0495 -0.0125,0.0991 -0.0215,0.14844 -0.0809,0.45219 -0.13769,0.53617 -0.30664,0.97656 -0.20258,0.63168 -0.40848,1.26211 -0.69531,1.85937 0.35187,0.17772 0.51558,0.28885 -0.0332,0.14258 -1.92239,-0.51043 -1.90366,0.11316 -1.67969,-0.9375 0.44489,0.21119 1.23284,0.55678 1.70117,0.79297 0.24302,-0.83698 0.15849,-0.28734 -1.63867,-0.86328 -0.0165,-0.005 -0.0171,-0.004 -0.0293,-0.008 0.0113,-0.0253 0.0266,-0.0528 0.0391,-0.0762 0.004,-0.008 0.0276,-0.003 0.0312,-0.0117 0.005,-0.0121 0.007,-0.025 0.0117,-0.0371 -0.0567,0.0345 -0.12364,0.0664 -0.18164,0.0996 0.0445,0.0123 0.0248,0.001 0.0957,0.0234 -0.0113,0.0223 -0.0276,0.0428 -0.0352,0.0645 -6.9e-4,0.003 -0.002,0.006 -0.002,0.008 -0.0648,-0.0309 -0.0716,-0.0394 -0.11524,-0.0625 -0.26908,0.15078 -0.56221,0.29801 -1.02344,0.49414 -0.10722,0.0456 -0.28714,0.16251 -0.40625,0.20117 -0.18509,0.14378 -0.3747,0.23821 -0.86132,0.50196 -3.76808,-2.09916 -4.95546,-1.15688 -2.10547,-4.65625 -0.0296,-0.015 -0.0583,-0.0319 -0.0879,-0.0469 -0.19926,0.16125 -0.65081,0.78762 -0.51172,0.57227 0.40699,-0.62948 0.9126,-1.13469 1.44922,-1.61133 -0.48799,-0.0155 -0.97521,-0.0277 -1.46289,-0.0742 -1.1644,-0.18914 -2.25291,-0.36944 -3.36328,-0.77148 -0.19437,-0.0704 -0.48861,-0.10034 -0.54493,-0.29688 -0.0629,-0.0133 -0.12641,-0.0244 -0.18945,-0.0371 -0.2315,-0.058 -0.4647,-0.10583 -0.69336,-0.17383 -0.12661,-0.0376 -0.23994,-0.1267 -0.37109,-0.14258 -0.62102,-0.0746 -1.66247,0.4627 -1.8711,-0.12695 -1.9062,-5.387 -0.23011,-4.99859 2.85157,-5.60547 1.48255,-0.1265 2.95929,-0.30665 4.44336,-0.41406 0.93814,-0.0679 1.88276,-0.0565 2.82031,-0.13477 1.52991,-0.12772 3.05894,-0.38677 4.58398,-0.57031 0.37988,-0.30841 0.69859,-0.71182 1.13867,-0.92578 0.65134,-0.31666 1.24963,-0.4331 1.86524,-0.42578 0.0356,-0.0515 0.0741,-0.10059 0.10937,-0.15234 0.905,-1.3263 1.92179,-1.91741 2.80469,-1.97461 z m -96.07031,2.86132 c 0.21876,-0.0419 0.50538,0.1316 0.65429,0.56055 0.11906,0.34575 0.0102,0.76645 0.10352,1.10547 0.005,0.0179 0.0806,0.1509 0.0957,0.17773 -0.0359,-0.0457 -0.0696,-0.091 -0.10742,-0.13671 -0.19418,-0.24609 -0.2342,-0.12156 -0.24609,0.0762 0.0325,0.004 0.0651,0.006 0.0977,0.01 0.21268,0.0486 0.40094,0.16423 0.60352,0.24024 0.15194,0.057 0.1559,0.026 0.30859,0.11328 0.0563,0.0321 0.10567,0.0753 0.15821,0.11328 0.73553,0.53292 -1.41527,0.17886 -0.64258,0.65625 0.0367,0.0228 0.0754,0.0412 0.10937,0.0684 0.0193,0.0155 -0.0437,-0.0249 -0.0664,-0.0332 -0.0756,-0.0275 -0.15488,-0.0459 -0.23047,-0.0742 -0.74842,-0.28245 0.0733,0.0171 -0.3418,-0.1543 -0.0359,-0.0147 -0.0735,-0.025 -0.11133,-0.0371 0.0174,-0.011 0.0755,-0.0245 0.0566,-0.0332 -0.0276,-0.0117 -0.0596,0.0139 -0.0898,0.0195 -0.0654,0.0125 -0.12879,0.0291 -0.19531,0.0332 -0.18667,0.0115 -0.37163,-0.0185 -0.55078,-0.0684 -0.0926,-0.0258 -0.18078,-0.0667 -0.27149,-0.0996 -0.74733,-0.27056 -0.56578,-0.92388 0.0703,-0.89648 0.0909,0.004 0.19075,0.0219 0.29883,0.0566 0.0427,0.0138 0.0927,0.0316 0.14063,0.0488 -0.0654,-0.33308 0.003,-0.67748 -0.0898,-1.00781 -0.12364,-0.437 0.0273,-0.69633 0.2461,-0.73829 z m 5.24219,7.33594 c 0.0904,-0.002 0.19255,0.008 0.30273,0.0352 0.36019,0.0895 0.7623,0.23165 0.86133,0.63867 0.006,0.0287 0.01,0.0583 0.0137,0.0879 0.0705,0.003 0.073,0.005 0.01,0.008 v 0.002 c 0.0836,0.19462 0.0519,0.2113 0.0918,0.41211 0.0261,0.1324 0.0727,0.25749 0.0937,0.39257 0.0378,0.0589 0.0482,0.12955 0.0645,0.19727 1.143,-0.0855 3.16399,-0.13582 3.89257,-0.17383 0.12849,-0.007 0.25638,-0.0227 0.38477,-0.0312 0.0346,-0.015 0.0599,-0.0349 0.0996,-0.0469 0.43249,-0.13059 0.8767,-0.15524 1.32812,-0.14844 9.9e-4,0.003 0.003,0.005 0.004,0.008 0.0493,-0.0208 0.096,-0.034 0.13086,-0.0332 0.0316,7.5e-4 0.054,0.014 0.0625,0.0508 0.0231,0.10103 0.004,0.2013 -0.0254,0.30078 0.11275,0.19652 0.21624,0.39281 0.17969,0.60352 -0.0305,0.17578 -0.34971,0.0721 -0.52735,0.0898 -0.47335,0.0475 -0.75181,0.0557 -1.08984,0.0781 -0.0472,0.01 -0.0886,0.01 -0.13086,0.01 -0.79476,0.0489 -1.49535,0.0701 -2.75391,0.11914 -0.54424,0.0212 -1.08931,0.0364 -1.63281,0.0723 0.15475,0.78454 -0.52867,1.25969 -0.74609,0.42968 -0.0286,-0.1095 -0.10501,-0.19439 -0.17774,-0.28125 -0.63625,0.003 -0.89832,-0.51196 -0.24414,-0.77539 -0.0214,-0.22633 -0.0215,-0.45633 -0.0176,-0.68554 0.002,-0.13204 0.007,-0.26428 0.01,-0.39649 -0.0614,-0.021 -0.12808,-0.0454 -0.17383,-0.0586 -0.76367,-0.22063 -0.63883,-0.88754 -0.01,-0.9043 z m 1.1875,0.77149 c -0.003,1.7e-4 -0.006,-1.7e-4 -0.01,0 0.003,0.0256 0.008,0.0509 0.0117,0.0762 -8e-5,-0.0254 -0.0118,-0.0947 -0.002,-0.0762 z m 106.33984,93.91796 c 0.5818,-0.0596 1.30131,0.97203 3.1543,3.66407 0.0623,-0.17187 0.12918,-0.33505 0.21093,-0.45703 -0.23501,0.73255 -0.17342,0.54747 -0.16406,0.52148 0.0143,0.0207 0.0227,0.0338 0.0371,0.0547 0.061,0.0886 -0.14371,0.42015 -0.39258,0.77929 -0.14323,0.47551 -0.25249,1.20689 -0.32422,1.4629 -0.18714,0.66974 -0.47666,1.345 -0.75976,2 0.41653,1.02015 0.1079,2.45948 -1.31836,3.6875 -0.0222,0.46878 0.012,0.94201 0.0137,1.4121 0.004,1.20892 0.0232,2.41626 0.0156,3.625 -0.0752,1.30855 -0.16285,2.62258 0.084,3.92383 0.0835,0.81151 0.29932,2.22591 0.0762,3.02539 -0.63239,2.26027 -1.96289,3.33776 -4.2207,3.60157 -0.74941,-0.25883 -1.65096,-0.25382 -2.24805,-0.77539 -1.13023,-0.98744 -0.90883,-2.43444 -0.92773,-3.69922 0.002,-0.26166 0.008,-0.52346 0.0117,-0.78516 -0.45427,0.37682 -0.76321,0.33447 -0.70703,-0.74414 0.0157,-0.28431 -0.0214,-1.29544 0.18164,-1.71875 -0.25734,-0.30186 -0.54411,-0.65736 -0.89454,-1.08984 -0.88073,0.90993 -1.50266,1.2277 -1.24609,-0.58789 0.035,-0.24745 0.0705,-0.49475 0.10547,-0.74219 -0.109,-0.12069 -0.19322,-0.22434 -0.31055,-0.34961 -0.0385,-0.0408 0.0969,-0.0597 0.13086,-0.10547 0.0698,-0.0983 0.13353,-0.20098 0.20117,-0.30078 0.0408,-0.0766 0.041,-0.0753 0.11524,-0.21875 -0.003,0.0195 -0.005,0.0391 -0.008,0.0586 0.18997,-0.28511 0.38078,-0.5701 0.57031,-0.85547 0.5037,-0.7584 1.00491,-1.51841 1.50781,-2.27734 0.17549,-0.2904 0.21177,-0.3521 0.35742,-0.5918 7.4e-4,-0.52941 0.0732,-1.06111 0.21094,-1.56445 0.20641,-0.75407 1.02774,-1.42926 1.89063,-2.01758 0.2815,-0.506 0.49519,-0.86981 0.9414,-1.70898 0.17431,-0.32757 0.34819,-0.65537 0.48047,-1.00196 0.0786,-0.20606 -0.0591,-0.57165 0.14844,-0.64648 0.0743,-0.0266 0.1147,0.10165 0.14062,0.23828 0.006,-0.0136 0.01,-0.0274 0.0156,-0.041 -0.0301,-0.39098 -0.0972,-0.77959 -0.14063,-1.16993 0.15073,-0.45312 0.25697,-0.92405 0.45313,-1.35937 0.11614,-0.25769 0.30648,-0.47554 0.47656,-0.70117 0.15384,-0.2042 0.27552,-0.32503 0.39062,-0.42578 0.0704,-0.15124 0.12368,-0.28523 0.1543,-0.34766 0.75129,-1.02951 1.14099,-1.72589 1.58594,-1.77149 z m -9.3125,17.15821 c 0.4409,0.48816 0.81635,0.92987 1.14062,1.33008 0.19773,-0.20428 0.41536,-0.45106 0.63282,-0.69922 -0.3616,-0.58776 -0.73668,-1.16381 -1.22071,-1.64649 -0.12161,-0.12115 -0.29653,0.0516 -0.44336,0.23047 -0.037,0.26166 -0.0724,0.52349 -0.10937,0.78516 z m 2.11719,2.50781 c -0.0321,0.11646 0.007,-0.004 0.004,0.004 -10e-4,-0.002 -0.003,-0.002 -0.004,-0.004 z" />
    <g
       aria-label="1"
       transform="matrix(2.3622997,0,0,4.6081178,-429.39734,-467.20957)"
       id="text9306-7-7-7"
       style="font-style:normal;font-variant:normal;font-weight:bold;font-stretch:normal;font-size:68.4015px;line-height:0.79;font-family:'Source Code Pro';-inkscape-font-specification:'Source Code Pro Bold';text-align:start;letter-spacing:0px;text-anchor:start;display:inline;fill:#ecfefe;fill-opacity:1;stroke:none;stroke-width:1.71003"
       inkscape:export-xdpi="91.663246"
       inkscape:export-ydpi="91.663246">
      <path
         id="path1112"
         style="font-style:normal;font-variant:normal;font-weight:bold;font-stretch:normal;font-family:'Source Code Pro';-inkscape-font-specification:'Source Code Pro Bold';text-align:start;text-anchor:start;fill:#ecfefe;fill-opacity:1;stroke-width:21.3241;filter:url(#filter1805)"
         d="M 630.94702,2.0158899 C 592.86913,64.734508 532.49187,172.55617 495.13477,235.71484 c 46.42904,-6.7e-4 92.85807,-0.001 139.28711,-0.002 l 10e-6,470.25345 -104.67107,0.42432 c -0.0801,45.8418 0.0793,58.21876 -8.2e-4,104.06056 105.31641,0.10742 229.14591,0.21485 334.46232,0.32227 39.53786,-38.11732 64.74784,-53.02944 82.66419,-104.89548 -64.47997,0.0491 -142.85205,0.36967 -207.33159,0.0883 -0.472,-192.17579 1.97013,-472.36394 1.49813,-664.539729 C 717.88715,22.033384 709.94342,29.227043 682.85635,17.078366 666.05713,11.946141 648.05382,6.1864249 630.94702,2.0158899 Z"
         transform="matrix(0.11200244,0,0,0.05741679,177.29077,103.11089)"
         sodipodi:nodetypes="cccccccccccc" />
    </g>
    <g
       aria-label="A"
       transform="matrix(2.3623841,0,0,4.3987616,-416.90937,-435.94964)"
       id="text9306-7-7-9"
       style="font-style:normal;font-variant:normal;font-weight:bold;font-stretch:normal;font-size:68.4015px;line-height:0.79;font-family:'Source Code Pro';-inkscape-font-specification:'Source Code Pro Bold';text-align:start;letter-spacing:-14.3027px;text-anchor:start;display:inline;fill:#ecfefe;fill-opacity:1;stroke:none;stroke-width:1.71003;stroke-opacity:1"
       inkscape:export-xdpi="91.663246"
       inkscape:export-ydpi="91.663246">
      <path
         id="path1115"
         style="font-style:normal;font-variant:normal;font-weight:bold;font-stretch:normal;font-family:'Source Code Pro';-inkscape-font-specification:'Source Code Pro Bold';text-align:start;text-anchor:start;fill:#ecfefe;fill-opacity:1;stroke:none;stroke-width:1.71003;stroke-opacity:1"
         d="m 239.11447,117.09338 c -4.6216,0.0241 -9.24319,0.0542 -13.86488,0.0426 -11.88732,10.89764 -20.88467,19.67209 -32.77159,30.57016 2.63048,1.83688 5.1774,3.7979 7.99989,5.30654 6.18285,-5.52356 12.11442,-11.31459 18.19199,-16.95283 7.80373,-0.0125 13.4249,0.008 21.22863,-0.004 0.0237,-2.74349 0.0253,-3.56821 -0.009,-6.30996 -4.87968,0.002 -9.75936,-0.0491 -14.63903,-0.0159 4.53864,-4.10681 9.2109,-8.42968 13.64313,-12.42967 0.0737,-0.069 0.14732,-0.13793 0.22098,-0.20689 z m -1.78543,10.45471 -0.004,9.4e-4 z"
         sodipodi:nodetypes="cccccccccccccc" />
    </g>
    <path
       style="fill:#3771c8;stroke-width:1.46802"
       d="m 700.95856,409.2095 c 0.59366,-179.44662 1.26793,-326.473482 1.49837,-326.726353 0.87194,-0.956799 25.61693,12.285473 42.0661,22.511643 170.37551,105.91966 253.70034,309.83203 205.99589,504.11277 -9.40154,38.28862 -24.01034,76.39967 -42.10919,109.85335 l -8.93492,16.51518 h -99.79782 -99.79782 z"
       id="path1"
       transform="scale(0.26458333)" />
    <path
       style="fill:#3771c8;stroke-width:1.46802"
       d="M 466.16509,998.21675 C 379.36773,991.83516 296.6842,963.71495 224.9674,916.18672 195.64831,896.75635 175.0088,879.70896 147.50942,852.20958 112.26084,816.961 88.726536,786.2788 65.289921,745.0182 31.460421,685.46072 10.315572,618.33003 2.9685198,547.16014 0.56430394,523.87083 0.95013954,471.29855 3.7089167,446.27691 9.7932496,391.09302 24.566534,338.38876 48.295654,287.212 62.427968,256.73274 88.055773,215.83231 110.97971,187.17206 127.56364,166.43828 166.43828,127.56364 187.17206,110.97971 262.04661,51.091224 350.95514,14.276878 446.27691,3.6921826 471.02417,0.94420421 524.67556,0.52480579 546.83602,2.9061018 646.43207,13.608395 729.80005,47.05425 808.8769,108.03258 c 20.22,15.5922 63.88441,58.71886 80.09979,79.11333 53.33495,67.08065 89.50402,147.81671 103.26415,230.50468 9.45056,56.79088 8.91646,118.87722 -1.49646,173.95992 -40.73388,215.47523 -216.81136,379.3041 -434.62191,404.38795 -24.13285,2.77922 -67.71179,3.85385 -89.95738,2.21829 z m 67.6126,-8.77814 c 67.31802,-5.23554 123.50575,-20.40849 181.88018,-49.11494 51.91394,-25.52944 91.55685,-53.75259 131.23502,-93.43078 71.90194,-71.90193 119.95417,-164.79448 136.61096,-264.09048 5.44282,-32.44628 6.51849,-46.19776 6.48798,-82.94291 -0.0337,-40.57253 -2.0395,-61.60719 -9.30419,-97.57099 C 951.50801,257.83509 858.72086,134.18532 727.95194,65.488531 615.59547,6.4643613 482.14969,-6.6453139 360.69602,29.409418 232.7757,67.383836 126.8415,154.76251 64.425361,273.78501 36.448128,327.13533 18.941197,385.76857 11.60711,450.68096 c -2.2838026,20.21344 -2.3239678,75.52987 -0.07035,96.88906 8.670105,82.17299 36.586691,160.12953 80.958283,226.07449 33.048187,49.11615 84.730237,100.78797 133.579447,133.55299 90.08698,60.42479 202.3645,90.43367 307.7032,82.24111 z"
       id="path2"
       transform="scale(0.26458333)" />
    <path
       style="fill:#3b82f6;stroke-width:1.46802;fill-opacity:1"
       d="m 462.42509,962.01175 c -17.74622,-1.32676 -51.60707,-7.02291 -73.03479,-12.28606 -41.10748,-10.09698 -79.50149,-25.16159 -115.54186,-45.33499 -21.70793,-12.15092 -44.83792,-27.41065 -44.83792,-29.58131 0,-0.83628 9.87137,-18.49048 21.93636,-39.23157 12.06501,-20.74107 45.31645,-78.66869 73.89209,-128.72804 l 51.95574,-91.01701 94.92976,-0.3777 94.92976,-0.37772 v -52.83787 c 0,-29.06083 -0.16515,-52.97876 -0.367,-53.15096 -0.20185,-0.1722 -29.23968,-0.66765 -64.5285,-1.10101 l -64.1615,-0.78793 30.23468,-51.38057 c 16.62905,-28.25931 44.01536,-74.72457 60.85844,-103.25614 16.84309,-28.53157 30.6238,-52.49174 30.6238,-53.24483 0,-1.51627 -123.37724,-0.0904 -125.03384,1.44497 -1.84882,1.71354 -47.03174,79.97623 -145.17392,251.46002 -53.91179,94.20006 -108.09772,188.56775 -120.41317,209.70596 l -22.39173,38.43314 -2.74554,-3.44971 C 97.836369,739.46705 69.586554,685.22386 51.930014,620.97914 10.519943,470.30531 48.844623,307.49028 153.25292,190.52828 252.59956,79.236539 399.68554,22.005998 546.6898,37.443636 c 21.46601,2.25425 34.22777,4.222667 35.47722,5.472127 0.38336,0.383359 -4.6885,9.876599 -11.27081,21.09609 -6.5823,11.219491 -29.4797,50.787007 -50.88311,87.927817 -21.40341,37.14081 -44.76818,77.54402 -51.92169,89.78491 -7.15353,12.24089 -13.0064,22.64546 -13.0064,23.12126 0,0.47579 31.03757,0.86508 68.97237,0.86508 h 68.97239 l 0.0353,234.88259 0.0353,234.88258 h -52.12551 -52.12551 v 52.84858 52.84858 H 651.15873 813.4681 l -9.26868,8.1793 c -28.29286,24.96745 -65.22732,49.14832 -103.22174,67.57892 -50.55304,24.52263 -104.05102,39.43221 -160.01376,44.59494 -14.81106,1.36637 -62.78897,1.66286 -78.53886,0.48534 z"
       id="path3"
       transform="scale(0.26458333)" />
    <path
       style="fill:#3b82f6;fill-opacity:1;stroke-width:1.46802"
       d="m 440.13168,958.64125 c -68.28204,-10.48967 -124.26546,-29.98231 -177.5341,-61.81487 -19.92981,-11.90975 -32.12752,-20.45176 -32.08422,-22.46846 0.0191,-0.89227 32.97074,-59.09515 73.22576,-129.33972 l 73.19095,-127.71741 94.49507,-0.86268 c 51.97229,-0.47446 94.66024,-0.96992 94.86209,-1.10101 0.20185,-0.13108 0.367,-24.3505 0.367,-53.82092 v -53.58259 l -33.39736,-0.20569 c -18.36856,-0.11311 -47.02131,-0.60856 -63.67278,-1.10101 l -30.27541,-0.89533 28.57418,-48.44453 C 532.22484,348.20199 558.2261,303.47746 558.98135,300.58939 l 0.79675,-3.04681 -62.22459,0.85405 c -61.30039,0.84136 -62.26238,0.9007 -64.76808,3.9951 -3.58255,4.42426 -31.60185,52.85555 -149.48851,258.39044 C 168.86281,760.29753 148.36402,795.8713 146.8741,797.53138 144.39412,800.29461 109.22578,749.82267 92.666765,719.73558 66.850618,672.82862 48.633493,617.4677 40.119851,560.04816 c -3.774109,-25.45417 -3.75563,-96.84589 0.03154,-121.84534 13.153002,-86.82416 45.225512,-161.71195 97.764949,-228.27651 16.04957,-20.33392 55.35439,-59.14265 76.26493,-75.30234 101.77102,-78.648796 225.5908,-111.89508 350.88059,-94.213339 8.4094,1.186791 15.56397,2.431943 15.89903,2.767005 0.68583,0.685832 2.04974,-1.707048 -71.78455,125.939974 -29.75023,51.43311 -54.09133,94.20743 -54.09133,95.05404 0,1.0516 21.60643,1.53927 68.19729,1.53927 h 68.19729 l 0.45191,26.05729 c 0.24854,14.33151 0.63093,120.02867 0.84974,234.88258 l 0.39784,208.8253 h -52.16485 -52.16485 v 52.84215 52.84214 l 161.62247,0.37345 161.62246,0.37343 -14.23863,11.74413 c -70.44005,58.09947 -152.99211,94.00434 -242.71325,105.56473 -26.06945,3.359 -91.5334,3.03178 -115.01075,-0.57487 z"
       id="path4"
       transform="scale(0.26458333)" />
    <path
       style="fill:#3b82f6;fill-opacity:1;stroke-width:1.46802"
       d="m 989.67468,522.61375 c 0,-2.01852 0.3332,-2.84428 0.74044,-1.83502 0.40725,1.00926 0.40725,2.66078 0,3.67004 -0.40724,1.00926 -0.74044,0.1835 -0.74044,-1.83502 z"
       id="path5"
       transform="scale(0.26458333)" />
    <path
       style="fill:#3b82f6;fill-opacity:1;stroke-width:1.46802"
       d="m 701.0606,522.98075 c 0.91662,-272.53718 2.21928,-439.30383 3.43153,-439.30383 2.24165,0 34.62738,18.8274 51.53619,29.96048 132.48919,87.23347 211.7506,240.51756 206.54278,399.43424 -1.78159,54.36494 -11.76749,103.54287 -31.2995,154.1417 -6.23822,16.16049 -28.1681,62.11088 -31.70272,66.42773 -1.17494,1.43497 -23.05456,1.83502 -100.36273,1.83502 h -98.86023 z"
       id="path6"
       transform="scale(0.26458333)" />
    <path
       style="fill:#3b82f6;fill-opacity:1;stroke-width:1.46802"
       d="m 439.67084,958.59994 c -59.49192,-9.08529 -106.00094,-23.86735 -154.1417,-48.99114 -16.62208,-8.67477 -44.056,-25.3241 -52.08988,-31.61275 l -3.64535,-2.85346 3.21459,-6.34155 c 1.76802,-3.48786 34.85263,-61.50226 73.52133,-128.9209 l 70.30674,-122.57935 82.7977,-0.88957 c 45.53873,-0.48926 88.24771,-0.98472 94.90883,-1.10102 l 12.11113,-0.21143 v -53.58259 -53.58259 l -33.39736,-0.20569 c -18.36856,-0.11311 -47.053,-0.60856 -63.74323,-1.10101 l -30.34585,-0.89533 35.96831,-60.92267 c 59.34549,-100.51869 84.17805,-143.41022 84.17805,-145.39478 0,-2.73834 -122.9566,-0.93622 -125.69928,1.84233 -2.81264,2.84942 -20.39193,33.23265 -151.00699,260.99375 C 182.73727,736.40035 148.40404,795.91054 146.81664,797.6187 145.48478,799.05189 124.81886,771.89817 111.25297,750.89026 73.85605,692.97801 50.53112,630.39429 40.126201,560.04816 36.378993,534.71384 36.364651,463.23395 40.101753,438.20282 48.354734,382.92431 66.679438,326.14913 90.56311,281.8591 153.76576,164.65572 261.59634,80.745156 389.5318,49.210504 434.02932,38.242369 482.07271,33.739167 524.44877,36.564471 c 23.91064,1.594174 55.15739,5.258434 56.5279,6.628944 0.6985,0.698504 2.07372,-1.719333 -69.36798,121.958405 -50.27667,87.03749 -56.52368,98.06211 -56.52368,99.75219 0,0.4438 30.64884,0.80691 68.10855,0.80691 h 68.10856 l 0.66876,6.23907 c 0.36782,3.43149 0.79747,109.12865 0.95477,234.88259 l 0.28601,228.64351 h -52.18115 -52.18113 v 52.84215 52.84214 l 161.82655,0.37345 161.82657,0.37343 -18.63645,14.97506 c -70.91384,56.98182 -150.37095,90.98161 -239.39814,102.43874 -25.52215,3.28451 -91.27213,2.8715 -114.79707,-0.72112 z"
       id="path7"
       transform="scale(0.26458333)" />
    <path
       style="fill:#3b82f6;fill-opacity:1;stroke-width:1.46802"
       d="m 438.93683,958.53021 c -55.33076,-8.32213 -101.63189,-22.70406 -147.76839,-45.89939 -26.33837,-13.24173 -60.6899,-34.82632 -60.6899,-38.13416 0,-1.00073 32.90067,-59.27919 73.11262,-129.50769 l 73.11263,-127.68818 82.13007,-0.89081 c 45.17155,-0.48993 87.9104,-0.98539 94.97523,-1.10101 l 12.84514,-0.2102 v -53.58259 -53.58259 l -37.0674,-0.18739 c -20.38708,-0.10309 -49.06473,-0.59854 -63.7281,-1.10102 l -26.6607,-0.91362 36.73317,-62.39068 c 74.07168,-125.80954 83.38295,-141.97656 83.38295,-144.77649 0,-1.24582 -120.21781,0.37851 -123.58284,1.6698 -3.61377,1.38673 0.0885,-4.94907 -150.96358,258.34595 -90.23344,157.28355 -125.03784,217.74798 -135.0977,234.70035 l -3.37646,5.68984 -4.12278,-4.95583 c -2.26753,-2.7257 -9.3688,-12.2225 -15.78061,-21.104 C 84.790888,715.28806 57.856812,653.93798 44.791367,587.0458 34.20526,532.84727 33.922376,467.82576 44.041619,414.71456 62.329425,318.73038 107.59012,234.78785 177.81939,166.60426 252.15443,94.434515 345.44719,50.578048 451.41497,37.988333 c 39.46071,-4.688209 131.90765,0.221517 129.3564,6.869937 -0.41934,1.09279 -26.8048,47.102892 -58.63434,102.24467 -70.10216,121.44557 -67.28043,116.42222 -66.07466,117.62799 0.53899,0.539 31.18078,0.97999 68.09285,0.97999 h 67.11286 l 0.88517,3.30304 c 0.48685,1.81667 0.89421,107.51383 0.90524,234.88258 l 0.02,231.57955 h -52.11457 -52.11457 v 52.84215 52.84214 l 161.82655,0.37345 161.82657,0.37343 -18.63645,14.97506 c -71.04214,57.08492 -151.79136,91.70039 -238.91211,102.41651 -27.05809,3.32824 -91.62251,2.90049 -116.01711,-0.76862 z"
       id="path8"
       transform="scale(0.26458333)" />
    <path
       style="fill:#3b82f6;fill-opacity:1;stroke-width:1.46802"
       d="m 438.93683,958.6018 c -55.32457,-8.54707 -101.2204,-22.69673 -145.50308,-44.8585 -28.73106,-14.37881 -62.95521,-35.73392 -62.95521,-39.28268 0,-1.0096 32.88833,-59.28357 73.08518,-129.49772 l 73.08517,-127.66211 69.6794,-0.89064 c 38.32366,-0.48985 81.07486,-0.98531 95.00266,-1.10102 l 25.32328,-0.21036 v -53.58259 -53.58259 l -37.0674,-0.18739 c -20.38708,-0.10309 -49.09123,-0.59854 -63.78699,-1.10102 l -26.71959,-0.91362 41.93977,-71.19878 c 61.41369,-104.25858 78.29647,-133.86606 77.2753,-135.51835 -0.9299,-1.50462 -118.59295,-0.32078 -122.55701,1.23307 -3.39044,1.329 -4.16578,2.6562 -148.34564,253.9286 -107.68614,187.67221 -138.98316,241.89758 -140.50672,243.4426 -0.66165,0.67097 -6.81389,-6.26541 -13.67163,-15.41417 C 68.003891,695.20879 36.731837,603.45675 36.731837,499.12549 c 0,-103.1211 31.301585,-196.15909 94.296763,-280.2791 17.23841,-23.01916 57.01976,-63.91845 78.89771,-81.11491 72.0634,-56.643127 148.85095,-88.366403 241.48866,-99.766324 18.986,-2.336403 74.68922,-2.347625 95.42105,-0.01922 27.16236,3.050617 34.80052,4.657753 33.85442,7.123274 -0.45651,1.189618 -19.77837,34.970636 -42.93747,75.06892 -69.58349,120.47873 -80.95093,140.38844 -81.45333,142.66291 -0.4175,1.89007 8.48597,2.27229 67.78213,2.90988 l 68.26275,0.73401 0.37149,234.51558 0.3715,234.51558 h -52.11907 -52.11906 v 52.84858 52.84858 l 161.84878,0.0611 161.84878,0.0611 -5.87207,5.25147 c -11.67711,10.443 -32.68294,26.17903 -51.43943,38.53465 -56.58505,37.27476 -115.26299,60.28568 -184.17716,72.22623 -15.71066,2.72214 -25.21298,3.24777 -66.06072,3.65419 -41.42277,0.41214 -50.1289,0.10108 -66.06073,-2.36021 z"
       id="path9"
       transform="scale(0.26458333)" />
    <path
       style="fill:#3b82f6;fill-opacity:1;stroke-width:1.46802"
       d="m 452.14897,960.58493 c -79.66731,-10.10397 -151.30813,-36.50657 -213.31742,-78.61627 -6.40669,-4.35069 -8.43895,-6.54386 -7.91618,-8.54293 1.21495,-4.64601 145.14975,-255.58734 146.90133,-256.11331 1.31885,-0.39603 148.35624,-2.18924 181.13045,-2.209 l 7.70708,-0.005 v -53.58259 -53.58259 l -41.47145,-0.19429 c -22.8093,-0.10686 -51.52756,-0.60232 -63.81833,-1.10102 l -22.3469,-0.90672 44.92862,-76.33684 c 61.63305,-104.71877 75.34172,-128.77427 74.32399,-130.421 -0.87588,-1.41718 -115.47622,-0.11483 -121.54208,1.38124 -4.21762,1.04022 -5.67564,3.51343 -135.78699,230.33288 -142.86101,249.04558 -153.76791,267.91295 -154.8759,267.91295 -1.04831,0 -21.69874,-27.81493 -31.06183,-41.83847 C 70.652733,690.33627 45.244146,618.83654 38.09422,540.34007 35.800499,515.15814 37.053687,457.31978 40.354947,436.0008 53.097106,353.71406 81.803888,284.53353 129.7818,220.49087 148.58903,195.38628 187.24084,155.58005 211.15655,136.68565 252.51868,104.00788 300.70606,77.667886 350.12185,60.725005 407.0895,41.192867 468.12416,32.782684 525.90371,36.5034 c 25.20119,1.622832 53.39869,5.015748 55.00104,6.618104 0.89172,0.891713 0.0885,2.312758 -68.29425,120.824426 -30.83162,53.43314 -56.05748,97.77641 -56.05748,98.54058 0,2.77009 10.26471,3.22441 72.8503,3.22441 h 63.6752 v 234.88259 234.88258 h -52.11457 -52.11457 v 52.84215 52.84214 l 161.82757,0.37345 161.82755,0.37343 -15.39294,12.58237 c -65.65713,53.66882 -138.04386,86.99513 -221.67429,102.0572 -19.62122,3.53384 -24.99788,3.86238 -69.70571,4.25946 -26.64449,0.23666 -50.75665,0.13704 -53.58259,-0.22136 z"
       id="path10"
       transform="scale(0.26458333)" />
    <path
       style="fill:#3b82f6;fill-opacity:1;stroke-width:1.46802"
       d="m 442.6655,959.25812 c -37.94339,-5.16392 -84.17004,-17.35014 -117.49992,-30.9752 -34.46811,-14.09035 -94.68704,-48.31675 -94.68704,-53.8169 0,-1.65477 137.25288,-243.11259 144.72118,-254.5962 2.11412,-3.25076 2.63166,-3.30304 32.70174,-3.30304 16.80449,0 59.39844,-0.43792 94.6532,-0.97315 l 64.09957,-0.97316 v -53.34343 -53.34345 l -42.20546,-0.18952 c -23.21301,-0.10425 -51.94486,-0.5997 -63.84856,-1.10102 l -21.64309,-0.91149 20.72314,-35.23238 c 99.01737,-168.34404 99.53272,-169.2576 96.54431,-171.14986 -2.30877,-1.46191 -42.30369,-1.50041 -89.16948,-0.0858 l -31.33639,0.94583 -3.3794,4.24056 c -4.72076,5.92369 -40.14911,67.18746 -194.5023,336.33919 -41.03694,71.55771 -87.09115,151.12388 -89.67933,154.93567 -2.30682,3.39742 -2.34804,3.36286 -13.32347,-11.17115 C 82.99026,715.90026 53.529126,647.40168 40.80032,565.92023 36.398998,537.74585 35.992154,464.10911 40.086568,436.7348 53.528185,346.86729 89.464093,266.84113 146.87952,198.91619 c 14.23175,-16.83678 46.54252,-48.0835 64.51481,-62.39023 40.25303,-32.04317 89.35667,-58.87348 138.72752,-75.800955 58.62647,-20.100889 120.59982,-28.419835 179.6207,-24.111248 24.02992,1.754209 49.65078,4.996318 51.12375,6.46929 0.9377,0.937703 3.78973,-4.126959 -60.71459,107.817723 -61.16394,106.14757 -64.25683,111.70486 -62.91618,113.04743 0.56498,0.56579 31.36079,1.23049 68.43511,1.47709 l 67.40788,0.44839 v 234.8012 234.80121 h -52.11457 -52.11457 v 52.84858 52.84858 l 161.84878,0.0611 161.84878,0.0611 -5.87207,5.24704 c -66.94783,59.82193 -161.66902,102.28297 -251.75577,112.85554 -23.56191,2.76523 -91.52967,2.6805 -112.2536,-0.13993 z"
       id="path11"
       transform="scale(0.26458333)" />
    <path
       style="fill:#3b82f6;fill-opacity:1;stroke-width:1.46802"
       d="m 701.31812,584.63765 c 0.42737,-189.37646 2.85091,-498.035313 3.91887,-499.103279 2.4208,-2.420794 58.47779,32.917499 83.08768,52.378419 21.81913,17.25405 61.18649,57.39262 77.81723,79.34167 46.63729,61.55133 76.93998,130.95348 89.42079,204.80018 4.5678,27.0269 5.98789,45.35699 5.98789,77.28981 0,79.58492 -17.96428,150.14412 -56.94188,223.6535 l -5.44881,10.27612 -26.42429,0.91779 c -14.53336,0.50477 -59.12435,1.00033 -99.09109,1.10123 l -72.6668,0.18346 z"
       id="path12"
       transform="scale(0.26458333)" />
    <path
       style="fill:#3b82f6;fill-opacity:1;stroke-width:1.46802"
       d="m 452.14897,960.61307 c -43.19573,-5.32197 -89.38261,-17.06403 -126.42958,-32.14212 -37.57391,-15.29255 -95.24085,-48.10328 -95.24085,-54.18913 0,-2.79822 144.68731,-255.27812 147.00751,-256.52865 1.09787,-0.59172 44.10984,-1.51038 95.58215,-2.04145 l 93.58603,-0.96559 v -53.40626 -53.40628 l -44.40748,-0.17342 c -24.42412,-0.0954 -53.18115,-0.59085 -63.90452,-1.10101 l -19.49702,-0.9276 40.61797,-68.99676 c 47.56977,-80.80561 78.38296,-134.24013 78.38296,-135.92738 0,-2.74497 -13.5181,-3.131 -66.46051,-1.89791 l -55.80686,1.29979 -3.09202,4.1054 c -4.84309,6.43035 -25.56521,42.18209 -146.94968,253.53144 C 153.5777,787.60802 148.01278,797.16592 146.06761,797.38819 141.92509,797.86158 103.32345,740.78608 88.309124,711.98783 62.10447,661.72595 44.733271,604.61678 38.883898,549.49854 36.386921,525.96971 36.038789,477.67099 38.198085,454.351 46.553973,364.10898 85.418775,271.94606 144.98552,201.11821 c 14.31147,-17.01706 48.00122,-50.03261 64.94079,-63.6412 43.81636,-35.20035 106.35567,-67.718032 160.26207,-83.329187 52.53271,-15.213339 109.37897,-21.415676 160.49946,-17.511651 24.1651,1.845467 48.75732,5.025746 50.22695,6.495375 0.83626,0.836253 -6.71394,14.335271 -48.13118,86.053873 -43.75894,75.77349 -76.23059,132.71044 -76.23059,133.66541 0,2.0415 21.8932,2.83958 78.17186,2.84966 l 58.35364,0.0104 v 234.88259 234.88258 h -52.11457 -52.11457 v 52.84858 52.84858 l 161.84878,0.0658 161.84878,0.0658 -7.34008,6.62512 c -11.60007,10.47016 -38.26042,30.22904 -55.85827,41.39843 -53.6104,34.02666 -110.05003,55.70725 -176.82229,67.92414 -14.53835,2.65998 -23.70986,3.15162 -66.06073,3.54122 -27.0482,0.24881 -51.49066,0.16753 -54.3166,-0.18066 z"
       id="path13"
       transform="scale(0.26458333)" />
    <path
       style="fill:#3b82f6;fill-opacity:1;stroke-width:1.46802"
       d="m 450.68096,960.58895 c -41.32078,-5.27296 -86.8301,-16.86247 -123.66819,-31.4936 -35.91202,-14.26333 -96.53423,-48.66689 -96.53423,-54.78391 0,-2.10623 142.99181,-252.94899 145.82108,-255.80595 1.25926,-1.27161 26.75992,-2.01127 96.03458,-2.78552 l 94.32003,-1.05417 v -53.14708 -53.14709 l -63.20088,-0.78455 c -34.76049,-0.4315 -63.51296,-1.09661 -63.89436,-1.47803 -0.38142,-0.38142 4.3535,-9.21028 10.52206,-19.6197 26.86392,-45.33281 91.97998,-156.75379 99.68341,-170.56966 4.63618,-8.31487 8.04969,-15.4977 7.58556,-15.96183 -1.74187,-1.74189 -28.15354,-2.07252 -74.21491,-0.92905 l -47.55274,1.18049 -3.09382,4.14405 C 427.74878,310.70208 412.35128,337.2815 287.3405,554.9101 151.80228,790.86571 147.07954,798.94583 145.33461,797.86739 142.79445,796.2975 123.59525,769.84834 110.85128,750.36255 70.541698,688.72842 44.895342,616.02918 38.27572,544.63399 36.290903,523.22697 36.24977,475.39244 38.198085,454.351 46.60743,363.53165 84.902911,272.71963 144.98649,201.11821 c 15.31137,-18.2465 50.64961,-52.57327 68.03978,-66.09232 34.50295,-26.82242 86.25943,-55.953904 124.75937,-70.221652 61.87298,-22.929592 129.57807,-32.89128 192.16819,-28.274378 23.43567,1.728711 49.47285,5.11357 50.98774,6.628458 0.47217,0.472181 -12.53313,24.15024 -28.90069,52.617908 -16.36756,28.467664 -44.6552,77.691284 -62.86142,109.385794 -18.20623,31.69453 -32.61005,58.11882 -32.00852,58.72065 0.60153,0.60184 31.42682,1.32534 68.50064,1.60777 l 67.40694,0.51354 v 234.73605 234.73606 h -52.11457 -52.11457 v 52.84858 52.84858 l 161.84878,0.0658 161.84878,0.0658 -7.34008,6.6725 c -11.19772,10.17927 -41.39961,32.46679 -58.23415,42.97397 -52.4452,32.73334 -109.00482,54.48524 -170.77637,65.67778 -18.90757,3.42591 -24.54641,3.75959 -70.46478,4.16974 -27.4519,0.2452 -52.22467,0.15076 -55.0506,-0.20986 z"
       id="path14"
       transform="scale(0.26458333)" />
    <path
       style="fill:#3b82f6;fill-opacity:1;stroke-width:1.46802"
       d="M 450.68096,960.60708 C 400.00193,954.41288 344.73055,938.44229 300.94331,917.3406 275.96989,905.30556 243.91847,886.85223 234.88258,879.30672 l -5.13805,-4.29059 5.71544,-10.68237 c 6.84518,-12.79389 133.32511,-234.25155 138.17103,-241.928 l 3.38174,-5.35703 60.68937,-0.97304 c 33.37915,-0.53518 76.04849,-0.97393 94.82075,-0.97499 l 34.13137,-0.002 v -53.36861 -53.36862 l -63.17882,-0.75745 c -34.74835,-0.41659 -63.49864,-1.07726 -63.88953,-1.46815 -0.39089,-0.39089 18.81467,-33.92776 42.67903,-74.52638 60.35965,-102.68527 76.19894,-130.53872 74.94337,-131.78806 -1.25089,-1.24468 -108.86446,-0.75098 -117.21241,0.53773 -4.73288,0.73065 -6.28674,2.01268 -10.58689,8.7349 -5.9782,9.34544 -46.75902,79.91841 -136.53163,236.27387 -90.97291,158.44604 -119.50773,207.9725 -134.02268,232.61651 l -12.49955,21.22218 -4.64014,-5.36784 c -2.55207,-2.95233 -9.42305,-12.0518 -15.26884,-20.22106 C 75.100629,701.86442 45.304659,623.68929 38.059541,541.71954 35.875258,517.00703 37.105295,455.76708 40.197701,435.26679 52.676746,352.54028 86.772736,273.48946 137.39096,209.92631 c 13.8565,-17.40012 58.72828,-61.89356 75.47138,-74.83505 46.6312,-36.043333 102.8467,-65.078531 156.21307,-80.683754 53.83125,-15.741166 108.81878,-21.778032 162.22208,-17.809734 23.23001,1.726177 48.08908,5.005557 49.63076,6.547228 0.94002,0.940023 -1.2058,4.770916 -54.23832,96.83094 -58.82203,102.11011 -70.49048,122.93473 -69.46015,123.96504 0.47994,0.47994 31.24223,1.1591 68.36068,1.50925 l 67.48806,0.63665 v 234.69461 234.6946 h -52.11457 -52.11457 v 52.84858 52.84858 l 161.84878,0.0583 161.84878,0.0583 -7.3326,6.74468 c -4.03291,3.70959 -15.37167,12.76671 -25.1972,20.12694 -61.47011,46.04675 -130.82593,75.83644 -207.49084,89.1214 -15.91469,2.75778 -24.87736,3.23109 -67.52874,3.56603 -27.0482,0.21241 -51.49067,0.1036 -54.3166,-0.2418 z"
       id="path15"
       transform="scale(0.26458333)" />
  </g>
</svg>
