<?xml version="1.0" encoding="UTF-8" standalone="no"?>
<svg
   width="1000"
   height="1000"
   viewBox="0 0 264.58333 264.58334"
   version="1.1"
   id="svg112"
   inkscape:version="1.4.3 (0d15f75042, 2025-12-25)"
   sodipodi:docname="azocarone.svg"
   inkscape:export-filename="export.png"
   inkscape:export-xdpi="96"
   inkscape:export-ydpi="96"
   xmlns:inkscape="http://www.inkscape.org/namespaces/inkscape"
   xmlns:sodipodi="http://sodipodi.sourceforge.net/DTD/sodipodi-0.dtd"
   xmlns="http://www.w3.org/2000/svg"
   xmlns:svg="http://www.w3.org/2000/svg"
   xmlns:rdf="http://www.w3.org/1999/02/22-rdf-syntax-ns#"
   xmlns:cc="http://creativecommons.org/ns#"
   xmlns:dc="http://purl.org/dc/elements/1.1/">
  <defs
     id="defs106">
    <linearGradient
       id="linearGradient2840"
       inkscape:swatch="solid">
      <stop
         style="stop-color:#ffffff;stop-opacity:1;"
         offset="0"
         id="stop2838" />
    </linearGradient>
    <linearGradient
       id="linearGradient3060"
       inkscape:swatch="solid">
      <stop
         style="stop-color:#ffffff;stop-opacity:1;"
         offset="0"
         id="stop3058" />
    </linearGradient>
    <filter
       inkscape:collect="always"
       style="color-interpolation-filters:sRGB"
       id="filter1805"
       x="-6.2128934e-05"
       width="1.0001243"
       y="-3.4702901e-05"
       height="1.0000694">
      <feGaussianBlur
         inkscape:collect="always"
         stdDeviation="0.011694264"
         id="feGaussianBlur1807" />
    </filter>
    <clipPath
       clipPathUnits="userSpaceOnUse"
       id="clipPath14">
      <path
         id="path14"
         style="font-variation-settings:normal;opacity:1;vector-effect:none;fill-opacity:1;stroke:#009788;stroke-width:2.64583;stroke-linecap:butt;stroke-linejoin:miter;stroke-miterlimit:4;stroke-dasharray:none;stroke-dashoffset:0;stroke-opacity:1;stop-color:#000000;stop-opacity:1"
         d="M 0.01343587,0.01343587 V 264.59678 H 264.59678 V 0.01343587 Z M 158.9841,64.102033 c 0.61355,0.005 1.22587,0.06069 1.83347,0.189135 0.43616,0.09379 0.86989,0.197146 1.3069,0.286803 0.0734,-0.02302 0.14821,-0.04336 0.22376,-0.06098 0.57026,-0.148683 1.15467,-0.236943 1.74563,-0.182933 0.60031,0.0429 1.20158,0.104328 1.78646,0.252698 0.80433,0.211299 1.57997,0.499729 2.29701,0.928108 0.78734,0.474565 1.46886,1.074822 1.99316,1.837097 0.43495,0.642522 0.81767,1.308995 0.87747,2.101162 0.048,0.550622 0.0456,1.100913 0.0253,1.653128 -0.0188,0.765717 -0.0462,1.531239 -0.10697,2.294951 -0.0918,1.055724 -0.21047,2.11211 -0.46767,3.142443 -0.27161,1.022916 -0.58423,2.036614 -1.03715,2.9962 -0.49223,0.954841 -1.07426,1.85689 -1.72444,2.712497 -0.70868,0.848352 -1.45823,1.66786 -2.37557,2.297533 -0.91959,0.629995 -1.89208,1.179304 -2.88509,1.685169 -0.94085,0.441841 -1.90758,0.849087 -2.93626,1.034563 -1.17311,0.197959 -2.37381,0.323519 -3.55327,0.0956 -1.40435,-0.321953 -2.75926,-0.799671 -3.8747,-1.748729 -1.30271,-1.142235 -2.48814,-2.414799 -3.49126,-3.830775 -0.50875,-0.763384 -0.97375,-1.547029 -1.29656,-2.409672 -0.2591,-0.566713 -0.51729,-1.133059 -0.74569,-1.713074 -0.23584,-0.622453 -0.47783,-1.257244 -0.52813,-1.926497 -0.0668,-0.754425 -0.0821,-1.517092 0.0909,-2.260327 0.22472,-0.965208 0.54152,-1.908109 1.04231,-2.768823 0.61576,-1.044831 1.30497,-2.034918 2.22829,-2.837034 1.09466,-0.949098 2.28736,-1.780765 3.59875,-2.406055 1.32592,-0.577265 2.69966,-1.020672 4.13204,-1.247468 0.61242,-0.07391 1.22766,-0.119737 1.84124,-0.114721 z m -0.231,1.939415 c -0.4572,0.0054 -0.91457,0.04376 -1.37046,0.102319 -1.24423,0.208643 -2.44101,0.59118 -3.59254,1.099675 -1.12787,0.550174 -2.1605,1.266499 -3.10266,2.091346 -0.76585,0.664787 -1.32147,1.491856 -1.82986,2.357477 -0.39746,0.690213 -0.64871,1.445702 -0.82372,2.218984 -0.1252,0.543036 -0.0996,1.100955 -0.0491,1.651063 0.0425,0.488744 0.23338,0.95385 0.40824,1.4087 0.21366,0.540914 0.45588,1.069113 0.69763,1.597835 0.2827,0.767757 0.69138,1.460963 1.14515,2.137338 0.91151,1.270373 1.97512,2.423002 3.15382,3.447852 0.87218,0.730639 1.93528,1.074031 3.02617,1.317231 0.9293,0.159946 1.87611,0.04382 2.79724,-0.115755 0.85352,-0.160301 1.65513,-0.508469 2.43603,-0.877465 0.89471,-0.464891 1.78171,-0.952283 2.61069,-1.527556 0.7696,-0.531373 1.39212,-1.227349 1.98593,-1.941483 0.5543,-0.747988 1.06504,-1.524868 1.48724,-2.354895 0.38622,-0.837435 0.65323,-1.718948 0.88884,-2.608112 0.22608,-0.922448 0.32839,-1.867961 0.4098,-2.812229 0.0571,-0.723845 0.0824,-1.449359 0.10025,-2.175063 0.0155,-0.479089 0.0247,-0.956517 -0.0186,-1.434018 -0.0401,-0.455703 -0.29008,-0.810263 -0.54467,-1.175121 -0.36673,-0.519125 -0.82452,-0.949034 -1.37666,-1.261422 -0.56229,-0.337627 -1.17048,-0.559123 -1.80196,-0.722437 -0.46948,-0.116157 -0.95181,-0.160604 -1.43299,-0.194304 -0.096,-0.0086 -0.19224,-0.01177 -0.28784,-0.0098 -0.23953,0.270425 -0.69873,0.433252 -1.35547,0.327631 -0.13305,0.06267 -0.26393,0.130659 -0.39584,0.195852 -1.10698,0.547084 -1.85793,0.02201 -1.79627,-0.648023 -0.45426,-0.07339 -0.91118,-0.101015 -1.3684,-0.0956 z" />
    </clipPath>
  </defs>
  <sodipodi:namedview
     id="base"
     pagecolor="#ffffff"
     bordercolor="#666666"
     borderopacity="1.0"
     inkscape:pageopacity="0"
     inkscape:pageshadow="2"
     inkscape:zoom="0.68119143"
     inkscape:cx="522.61374"
     inkscape:cy="485.91334"
     inkscape:document-units="px"
     inkscape:current-layer="layer1"
     inkscape:document-rotation="0"
     showgrid="false"
     units="px"
     inkscape:window-width="1920"
     inkscape:window-height="1011"
     inkscape:window-x="0"
     inkscape:window-y="0"
     inkscape:window-maximized="1"
     showborder="true"
     inkscape:showpageshadow="false"
     inkscape:pagecheckerboard="false"
     showguides="true"
     inkscape:snap-to-guides="true"
     fit-margin-left="0"
     fit-margin-right="0"
     fit-margin-top="0"
     fit-margin-bottom="0"
     inkscape:deskcolor="#d1d1d1">
    <sodipodi:guide
       position="18.8988,0"
       orientation="264.5833,0"
       id="guide1403"
       inkscape:locked="false" />
    <sodipodi:guide
       position="37.7976,0"
       orientation="264.5833,0"
       id="guide1405"
       inkscape:locked="false" />
    <sodipodi:guide
       position="56.6964,0"
       orientation="264.5833,0"
       id="guide1407"
       inkscape:locked="false" />
    <sodipodi:guide
       position="75.5952,0"
       orientation="264.5833,0"
       id="guide1409"
       inkscape:locked="false" />
    <sodipodi:guide
       position="94.494,0"
       orientation="264.5833,0"
       id="guide1411"
       inkscape:locked="false" />
    <sodipodi:guide
       position="113.393,0"
       orientation="264.5833,0"
       id="guide1413"
       inkscape:locked="false" />
    <sodipodi:guide
       position="132.292,0"
       orientation="264.5833,0"
       id="guide1415"
       inkscape:locked="false" />
    <sodipodi:guide
       position="151.19,0"
       orientation="264.5833,0"
       id="guide1417"
       inkscape:locked="false" />
    <sodipodi:guide
       position="170.089,0"
       orientation="264.5833,0"
       id="guide1419"
       inkscape:locked="false" />
    <sodipodi:guide
       position="188.988,0"
       orientation="264.5833,0"
       id="guide1421"
       inkscape:locked="false" />
    <sodipodi:guide
       position="207.887,0"
       orientation="264.5833,0"
       id="guide1423"
       inkscape:locked="false" />
    <sodipodi:guide
       position="226.786,0"
       orientation="264.5833,0"
       id="guide1425"
       inkscape:locked="false" />
    <sodipodi:guide
       position="245.685,0"
       orientation="264.5833,0"
       id="guide1427"
       inkscape:locked="false" />
    <sodipodi:guide
       position="0,18.8988"
       orientation="0,264.5833"
       id="guide1429"
       inkscape:locked="false" />
    <sodipodi:guide
       position="0,37.7976"
       orientation="0,264.5833"
       id="guide1431"
       inkscape:locked="false" />
    <sodipodi:guide
       position="0,56.6964"
       orientation="0,264.5833"
       id="guide1433"
       inkscape:locked="false" />
    <sodipodi:guide
       position="0,75.5952"
       orientation="0,264.5833"
       id="guide1435"
       inkscape:locked="false" />
    <sodipodi:guide
       position="0,94.494"
       orientation="0,264.5833"
       id="guide1437"
       inkscape:locked="false" />
    <sodipodi:guide
       position="0,113.393"
       orientation="0,264.5833"
       id="guide1439"
       inkscape:locked="false" />
    <sodipodi:guide
       position="0,132.292"
       orientation="0,264.5833"
       id="guide1441"
       inkscape:locked="false" />
    <sodipodi:guide
       position="0,151.19"
       orientation="0,264.5833"
       id="guide1443"
       inkscape:locked="false" />
    <sodipodi:guide
       position="0,170.089"
       orientation="0,264.5833"
       id="guide1445"
       inkscape:locked="false" />
    <sodipodi:guide
       position="0,188.988"
       orientation="0,264.5833"
       id="guide1447"
       inkscape:locked="false" />
    <sodipodi:guide
       position="0,207.887"
       orientation="0,264.5833"
       id="guide1449"
       inkscape:locked="false" />
    <sodipodi:guide
       position="0,226.786"
       orientation="0,264.5833"
       id="guide1451"
       inkscape:locked="false" />
    <sodipodi:guide
       position="0,245.685"
       orientation="0,264.5833"
       id="guide1453"
       inkscape:locked="false" />
    <sodipodi:guide
       position="264.583,0"
       orientation="0.5253219888177297,0.5253219888177297"
       id="guide1524"
       inkscape:locked="false" />
    <sodipodi:guide
       position="264.583,264.583"
       orientation="-0.8509035245341184,0.8509035245341184"
       id="guide1526"
       inkscape:locked="false" />
  </sodipodi:namedview>
  <metadata
     id="metadata109">
    <rdf:RDF>
      <cc:Work
         rdf:about="">
        <dc:format>image/svg+xml</dc:format>
        <dc:type
           rdf:resource="http://purl.org/dc/dcmitype/StillImage" />
      </cc:Work>
    </rdf:RDF>
  </metadata>
  <g
     inkscape:label="Capa 1"
     inkscape:groupmode="layer"
     id="layer1"
     style="display:inline">
    <path
       id="path1740"
       style="font-variation-settings:normal;display:inline;opacity:1;mix-blend-mode:normal;vector-effect:none;fill:#ffffff;fill-opacity:1;fill-rule:evenodd;stroke:#121212;stroke-width:2.64583;stroke-linecap:butt;stroke-linejoin:miter;stroke-miterlimit:4;stroke-dasharray:none;stroke-dashoffset:0;stroke-opacity:1;stop-color:#000000;stop-opacity:1"
       d="M 132.00606,1.3365111 C 59.790874,1.5014503 1.3362847,60.089886 1.3365111,132.30526 1.3364724,204.63732 59.973201,263.27405 132.30526,263.27401 c 72.33206,4e-5 130.96879,-58.63669 130.96875,-130.96875 4e-5,-72.332059 -58.63669,-130.9687876 -130.96875,-130.9687489 -0.0997,-1.139e-4 -0.19947,-1.139e-4 -0.2992,0 z"
       clip-path="url(#clipPath14)"
       sodipodi:nodetypes="cccccc"
       inkscape:label="Borde" />
    <path
       id="path1740-9"
       style="font-variation-settings:normal;display:inline;mix-blend-mode:normal;vector-effect:none;fill:#3b82f6;fill-opacity:1;fill-rule:evenodd;stroke:none;stroke-width:2.46829;stroke-linecap:butt;stroke-linejoin:miter;stroke-miterlimit:4;stroke-dasharray:none;stroke-dashoffset:0;stroke-opacity:1;stop-color:#000000"
       d="M 132.08496,9.0340737 C 83.989589,8.5001678 37.513813,39.190292 19.116654,83.630946 -0.3543274,127.61452 9.5054154,182.43313 43.083503,216.87461 75.847479,252.15807 130.1847,264.71194 175.10573,247.37761 220.38416,231.1577 253.29105,186.22842 255.09316,138.16609 258.06745,90.092219 229.68238,42.061275 186.1354,21.480065 169.3754,13.291416 150.73865,8.9987219 132.08496,9.0340737 Z"
       sodipodi:nodetypes="sscssss"
       inkscape:label="Fondo" />
    <g
       aria-label="1"
       transform="matrix(2.3622997,0,0,4.6081178,-429.39734,-467.20957)"
       id="text9306-7-7-7"
       style="font-style:normal;font-variant:normal;font-weight:bold;font-stretch:normal;font-size:68.4015px;line-height:0.79;font-family:'Source Code Pro';-inkscape-font-specification:'Source Code Pro Bold';text-align:start;letter-spacing:0px;text-anchor:start;display:inline;fill:#ffffff;fill-opacity:1;stroke:none;stroke-width:1.71003"
       inkscape:export-xdpi="91.663246"
       inkscape:export-ydpi="91.663246"
       inkscape:label="Caracter-1">
      <path
         id="path1112"
         style="font-style:normal;font-variant:normal;font-weight:bold;font-stretch:normal;font-family:'Source Code Pro';-inkscape-font-specification:'Source Code Pro Bold';text-align:start;text-anchor:start;display:inline;fill:#ffffff;fill-opacity:1;stroke-width:21.3241;filter:url(#filter1805)"
         d="M 630.94702,2.0158899 C 592.86913,64.734508 532.49187,172.55617 495.13477,235.71484 c 46.42904,-6.7e-4 92.85807,-0.001 139.28711,-0.002 l 10e-6,470.25345 -104.67107,0.42432 c -0.0801,45.8418 0.0793,58.21876 -8.2e-4,104.06056 105.31641,0.10742 229.14591,0.21485 334.46232,0.32227 39.53786,-38.11732 64.74784,-53.02944 82.66419,-104.89548 -64.47997,0.0491 -142.85205,0.36967 -207.33159,0.0883 -0.472,-192.17579 1.97013,-472.36394 1.49813,-664.539729 C 717.88715,22.033384 709.94342,29.227043 682.85635,17.078366 666.05713,11.946141 648.05382,6.1864249 630.94702,2.0158899 Z"
         transform="matrix(0.11200244,0,0,0.05741679,177.29077,103.11089)"
         sodipodi:nodetypes="cccccccccccc" />
    </g>
    <g
       aria-label="A"
       transform="matrix(2.3623841,0,0,4.3987616,-416.90937,-435.94964)"
       id="text9306-7-7-9"
       style="font-style:normal;font-variant:normal;font-weight:bold;font-stretch:normal;font-size:68.4015px;line-height:0.79;font-family:'Source Code Pro';-inkscape-font-specification:'Source Code Pro Bold';text-align:start;letter-spacing:-14.3027px;text-anchor:start;display:inline;fill:#ffffff;fill-opacity:1;stroke:none;stroke-width:1.71003;stroke-opacity:1"
       inkscape:export-xdpi="91.663246"
       inkscape:export-ydpi="91.663246"
       inkscape:label="Caracter-A">
      <path
         id="path1115"
         style="font-style:normal;font-variant:normal;font-weight:bold;font-stretch:normal;font-family:'Source Code Pro';-inkscape-font-specification:'Source Code Pro Bold';text-align:start;text-anchor:start;fill:#ffffff;fill-opacity:1;stroke:none;stroke-width:1.71003;stroke-opacity:1"
         d="m 239.11447,117.09338 c -4.6216,0.0241 -9.24319,0.0542 -13.86488,0.0426 -11.88732,10.89764 -20.88467,19.67209 -32.77159,30.57016 2.63048,1.83688 5.1774,3.7979 7.99989,5.30654 6.18285,-5.52356 12.11442,-11.31459 18.19199,-16.95283 7.80373,-0.0125 13.4249,0.008 21.22863,-0.004 0.0237,-2.74349 0.0253,-3.56821 -0.009,-6.30996 -4.87968,0.002 -9.75936,-0.0491 -14.63903,-0.0159 4.53864,-4.10681 9.2109,-8.42968 13.64313,-12.42967 0.0737,-0.069 0.14732,-0.13793 0.22098,-0.20689 z m -1.78543,10.45471 -0.004,9.4e-4 z"
         sodipodi:nodetypes="cccccccccccccc" />
    </g>
  </g>
</svg>
